<svg xmlns="http://www.w3.org/2000/svg" viewBox="0 0 28 28"><path d="M20.111 26.147c-2.336 1.051-4.361 1.401-7.125 1.401C6.524 27.548.84 22.915.84 15.283.84 7.343 6.602.45 15.401.45c6.853 0 11.8 4.7 11.8 11.252 0 5.684-3.194 9.265-7.399 9.3-1.829 0-3.153-.934-3.347-2.997h-.077c-1.208 1.986-2.96 2.997-5.023 2.997-2.532 0-4.361-1.868-4.361-5.062 0-4.749 3.504-9.071 9.111-9.071 1.713 0 3.7.4 4.6.973l-1.169 7.203c-.388 2.298-.116 3.3 1 3.4 1.673 0 3.773-2.102 3.773-6.58 0-5.061-3.27-8.994-9.303-8.994-5.957 0-11.175 4.673-11.175 12.1 0 6.5 4.2 10.2 10 10.201 1.986 0 4.089-.43 5.646-1.245l.634 2.22zM16.646 10.1a4.788 4.788 0 0 0-1.207-.155c-2.571 0-4.595 2.53-4.595 5.529 0 1.5.7 2.4 1.9 2.4 1.441 0 2.959-1.828 3.311-4.087l.591-3.719z"/></svg>