<svg xmlns="http://www.w3.org/2000/svg" xmlns:xlink="http://www.w3.org/1999/xlink" preserveAspectRatio="xMidYMid" width="29" height="29" viewBox="0 0 29 29">
  <path d="M26.400,-0.000 C26.400,-0.000 2.599,-0.000 2.599,-0.000 C1.715,-0.000 -0.000,1.715 -0.000,2.600 C-0.000,2.600 -0.000,26.400 -0.000,26.400 C-0.000,27.284 1.715,29.000 2.599,29.000 C2.599,29.000 14.993,29.000 14.993,29.000 C14.993,29.000 14.993,17.988 14.993,17.988 C14.993,17.988 10.997,17.988 10.997,17.988 C10.997,17.988 10.997,14.009 10.997,14.009 C10.997,14.009 14.994,14.009 14.994,14.009 C14.994,14.009 14.994,10.946 14.994,10.946 C14.994,7.200 17.829,4.977 21.171,4.977 C22.771,4.977 23.614,5.149 24.015,5.202 C24.015,5.202 24.015,8.994 24.015,8.994 C24.015,8.994 21.180,8.993 21.180,8.993 C19.363,8.993 19.024,9.894 19.024,11.162 C19.024,11.162 19.024,14.009 19.024,14.009 C19.024,14.009 24.069,14.009 24.069,14.009 C24.069,14.009 23.411,17.988 23.411,17.988 C23.411,17.988 19.024,17.988 19.024,17.988 C19.024,17.988 19.024,29.000 19.024,29.000 C19.024,29.000 26.400,29.000 26.400,29.000 C27.284,29.000 29.000,27.284 29.000,26.400 C29.000,26.400 29.000,2.600 29.000,2.600 C29.000,1.715 27.284,-0.000 26.400,-0.000 Z" id="path-1" class="cls-2" fill-rule="evenodd"/>
</svg>
