<?xml version="1.0" encoding="utf-8"?>
<!-- Generator: Adobe Illustrator 14.0.0, SVG Export Plug-In . SVG Version: 6.00 Build 43363)  -->
<!DOCTYPE svg PUBLIC "-//W3C//DTD SVG 1.1//EN" "http://www.w3.org/Graphics/SVG/1.1/DTD/svg11.dtd">
<svg version="1.1" id="Layer_1" xmlns="http://www.w3.org/2000/svg" xmlns:xlink="http://www.w3.org/1999/xlink" x="0px" y="0px"
	 width="100px" height="100px" viewBox="0 0 100 100" enable-background="new 0 0 100 100" xml:space="preserve">
<path d="M99.5,17.001C99.5,8.31,91.689,0.5,83,0.5H17C8.327,0.5,0.5,8.31,0.5,17.001v65.998C0.5,91.689,8.31,99.5,17,99.5h33V62.1
	H37.9V45.6H50v-6.428C50,28.11,58.359,18.1,68.59,18.1H81.9v16.5H68.562c-1.46,0-3.162,1.761-3.162,4.427V45.6h16.5v16.5H65.4v37.4
	H83c8.672,0,16.5-7.83,16.5-16.501V17.001z"/>
</svg>
