
<svg version="1.1" id="Icons" xmlns="http://www.w3.org/2000/svg" xmlns:xlink="http://www.w3.org/1999/xlink" x="0px" y="0px" width="100px" height="100px" viewBox="0 0 100 100" style="enable-background:new 0 0 100 100;" xml:space="preserve">
	<path id="Facebook__x28_alt_x29_" d="M95,20.001C95,12.119,87.884,5,80,5h-60C12.116,5,5,12.119,5,20.001v59.998
	C5,87.881,12.116,95,20.001,95H50V61H39V46h11v-5.844C50,30.077,57.569,21,66.875,21H79v15H66.875C65.548,36,64,37.611,64,40.024V46
	h15v15H64v34h16c7.884,0,15-7.119,15-15.001V20.001z" />
</svg>
