<svg xmlns="http://www.w3.org/2000/svg" xmlns:xlink="http://www.w3.org/1999/xlink" version="1.1" x="0px" y="0px" width="100px" height="100px" viewBox="0 0 100 100" enable-background="new 0 0 100 100" xml:space="preserve"><style>.style0{fill-rule:	evenodd;clip-rule:	evenodd;fill:	#181616;}</style><path d="M49.997 0.93c-27.268 0-49.382 22.109-49.382 49.4 c0 21.8 14.1 40.3 33.8 46.858c2.47 0.5 3.37-1.072 3.37-2.381c0-1.171-0.043-4.278-0.066-8.397 c-13.736 2.982-16.636-6.622-16.636-6.622c-2.245-5.705-5.483-7.223-5.483-7.223c-4.482-3.065 0.339-3.004 0.339-3.004 c4.956 0.4 7.6 5.1 7.6 5.091c4.405 7.5 11.6 5.4 14.4 4.103c0.449-3.189 1.726-5.367 3.137-6.602 c-10.967-1.246-22.495-5.483-22.495-24.407c0-5.392 1.924-9.8 5.083-13.253c-0.508-1.248-2.203-6.27 0.484-13.069 c0 0 4.146-1.328 13.6 5.063c3.939-1.096 8.164-1.644 12.363-1.662c4.194 0 8.4 0.6 12.4 1.7 c9.427-6.392 13.566-5.063 13.566-5.063c2.695 6.8 1 11.8 0.5 13.069c3.165 3.5 5.1 7.9 5.1 13.3 c0 18.972-11.547 23.146-22.549 24.368c1.776 1.5 3.4 4.5 3.4 9.147c0 6.602-0.062 11.928-0.062 13.5 c0 1.3 0.9 2.9 3.4 2.375c19.604-6.544 33.742-25.041 33.742-46.853C99.386 23 77.3 0.9 50 0.93z" class="style0"/></svg>