<svg xmlns="http://www.w3.org/2000/svg" viewBox="0 0 28 28"><path d="M13.971 1.571c-7.031 0-12.734 5.702-12.734 12.74 0 5.621 3.636 10.392 8.717 12.083.637.129.869-.277.869-.615 0-.301-.012-1.102-.018-2.164-3.542.77-4.29-1.707-4.29-1.707-.579-1.473-1.414-1.863-1.414-1.863-1.155-.791.088-.775.088-.775 1.277.104 1.96 1.316 1.96 1.312 1.136 1.936 2.991 1.393 3.713 1.059.116-.822.445-1.383.81-1.703-2.829-.32-5.802-1.414-5.802-6.293 0-1.391.496-2.527 1.312-3.418-.132-.322-.57-1.617.123-3.371 0 0 1.069-.342 3.508 1.306a12.22 12.22 0 0 1 3.188-.429c1.081 0 2.166.155 3.197.438 2.431-1.648 3.498-1.306 3.498-1.306.695 1.754.258 3.043.129 3.371a4.968 4.968 0 0 1 1.315 3.43c0 4.892-2.978 5.968-5.814 6.285.458.387.876 1.16.876 2.357 0 1.703-.016 3.076-.016 3.482 0 .334.232.748.877.611 5.056-1.688 8.701-6.457 8.701-12.082-.056-7.057-5.752-12.756-12.793-12.748z"/></svg>