<?xml version="1.0" encoding="utf-8"?>
<!-- Generator: Adobe Illustrator 16.0.0, SVG Export Plug-In . SVG Version: 6.00 Build 0)  -->
<!DOCTYPE svg PUBLIC "-//W3C//DTD SVG 1.1//EN" "http://www.w3.org/Graphics/SVG/1.1/DTD/svg11.dtd">
<svg version="1.1" id="Layer_1" xmlns="http://www.w3.org/2000/svg" xmlns:xlink="http://www.w3.org/1999/xlink" x="0px" y="0px"
	 width="134.658px" height="131.646px" viewBox="0 0 134.658 131.646" enable-background="new 0 0 134.658 131.646"
	 xml:space="preserve">
<g>
	<path fill="#DC4A38" d="M126.515,4.109H8.144c-2.177,0-3.94,1.763-3.94,3.938v115.546c0,2.179,1.763,3.942,3.94,3.942h118.371
		c2.177,0,3.94-1.764,3.94-3.942V8.048C130.455,5.872,128.691,4.109,126.515,4.109z"/>
	<g>
		<path fill="#FFFFFF" d="M70.479,71.845l-3.983-3.093c-1.213-1.006-2.872-2.334-2.872-4.765c0-2.441,1.659-3.993,3.099-5.43
			c4.64-3.652,9.276-7.539,9.276-15.73c0-8.423-5.3-12.854-7.84-14.956h6.849l7.189-4.517H60.418
			c-5.976,0-14.588,1.414-20.893,6.619c-4.752,4.1-7.07,9.753-7.07,14.842c0,8.639,6.633,17.396,18.346,17.396
			c1.106,0,2.316-0.109,3.534-0.222c-0.547,1.331-1.1,2.439-1.1,4.32c0,3.431,1.763,5.535,3.317,7.528
			c-4.977,0.342-14.268,0.893-21.117,5.103c-6.523,3.879-8.508,9.525-8.508,13.51c0,8.202,7.731,15.842,23.762,15.842
			c19.01,0,29.074-10.519,29.074-20.932C79.764,79.709,75.344,75.943,70.479,71.845z M56,59.107
			c-9.51,0-13.818-12.294-13.818-19.712c0-2.888,0.547-5.87,2.428-8.199c1.773-2.218,4.861-3.657,7.744-3.657
			c9.168,0,13.923,12.404,13.923,20.382c0,1.996-0.22,5.533-2.762,8.09C61.737,57.785,58.762,59.107,56,59.107z M56.109,103.65
			c-11.826,0-19.452-5.657-19.452-13.523c0-7.864,7.071-10.524,9.504-11.405c4.64-1.561,10.611-1.779,11.607-1.779
			c1.105,0,1.658,0,2.538,0.111c8.407,5.983,12.056,8.965,12.056,14.629C72.362,98.542,66.723,103.65,56.109,103.65z"/>
		<polygon fill="#FFFFFF" points="98.393,58.938 98.393,47.863 92.923,47.863 92.923,58.938 81.866,58.938 81.866,64.469 
			92.923,64.469 92.923,75.612 98.393,75.612 98.393,64.469 109.506,64.469 109.506,58.938 		"/>
	</g>
</g>
</svg>
