<svg xmlns="http://www.w3.org/2000/svg" viewBox="0 0 28 28"><path d="M14.703 15.854l-1.22-.948c-.37-.308-.88-.715-.88-1.46 0-.747.51-1.222.95-1.662 1.42-1.12 2.84-2.31 2.84-4.817 0-2.58-1.62-3.937-2.4-4.58h2.098l2.203-1.384h-6.67c-1.83 0-4.467.433-6.398 2.027C3.768 4.287 3.06 6.018 3.06 7.576c0 2.634 2.02 5.328 5.603 5.328.34 0 .71-.033 1.083-.068-.167.408-.336.748-.336 1.324 0 1.04.55 1.685 1.01 2.297-1.523.104-4.37.273-6.466 1.562-1.998 1.187-2.605 2.915-2.605 4.136 0 2.512 2.357 4.84 7.288 4.84 5.822 0 8.904-3.223 8.904-6.41.008-2.327-1.36-3.49-2.83-4.73h-.01zM10.27 11.95c-2.913 0-4.232-3.764-4.232-6.036 0-.884.168-1.797.744-2.51.543-.68 1.49-1.12 2.372-1.12 2.807 0 4.256 3.797 4.256 6.24 0 .613-.067 1.695-.845 2.48-.537.55-1.438.947-2.295.95v-.003zm.032 13.66c-3.62 0-5.957-1.733-5.957-4.143 0-2.408 2.165-3.223 2.91-3.492 1.422-.48 3.25-.545 3.556-.545.34 0 .52 0 .767.034 2.574 1.838 3.706 2.757 3.706 4.48-.002 2.072-1.736 3.664-4.982 3.648l.002.017zM23.254 11.89V8.52H21.57v3.37H18.2v1.714h3.367v3.4h1.684v-3.4h3.4V11.89"/></svg>