<svg xmlns="http://www.w3.org/2000/svg" xmlns:xlink="http://www.w3.org/1999/xlink" version="1.1" x="0px" y="0px" width="134.658px" height="131.646px" viewBox="0 0 134.658 131.646" enable-background="new 0 0 134.658 131.646" xml:space="preserve"><style>.style0{fill:	#000;}</style><g><path d="M126.515 4.109H8.144c-2.177 0-3.94 1.763-3.94 3.938v115.546c0 2.2 1.8 3.9 3.9 3.942h118.371 c2.177 0 3.94-1.764 3.94-3.942V8.048C130.455 5.9 128.7 4.1 126.5 4.109z" class="style0"/><g><path d="M70.479 71.845l-3.983-3.093c-1.213-1.006-2.872-2.334-2.872-4.765c0-2.441 1.659-3.993 3.099-5.43 c4.64-3.652 9.276-7.539 9.276-15.73c0-8.423-5.3-12.854-7.84-14.956h6.849l7.189-4.517H60.418 c-5.976 0-14.588 1.414-20.893 6.619c-4.752 4.1-7.07 9.753-7.07 14.842c0 8.6 6.6 17.4 18.3 17.4 c1.106 0 2.316-0.109 3.534-0.222c-0.547 1.331-1.1 2.439-1.1 4.32c0 3.4 1.8 5.5 3.3 7.5 c-4.977 0.342-14.268 0.893-21.117 5.103c-6.523 3.879-8.508 9.525-8.508 13.51c0 8.2 7.7 15.8 23.8 15.8 c19.01 0 29.074-10.519 29.074-20.932C79.764 79.7 75.3 75.9 70.5 71.845z M56 59.1 c-9.51 0-13.818-12.294-13.818-19.712c0-2.888 0.547-5.87 2.428-8.199c1.773-2.218 4.861-3.657 7.744-3.657 c9.168 0 13.9 12.4 13.9 20.382c0 1.996-0.22 5.533-2.762 8.09C61.737 57.8 58.8 59.1 56 59.107z M56.109 103.7 c-11.826 0-19.452-5.657-19.452-13.523c0-7.864 7.071-10.524 9.504-11.405c4.64-1.561 10.611-1.779 11.607-1.779 c1.105 0 1.7 0 2.5 0.111c8.407 6 12.1 9 12.1 14.629C72.362 98.5 66.7 103.7 56.1 103.65z" class="style0"/><polygon points="98.4,58.9 98.4,47.9 92.9,47.9 92.9,58.9 81.9,58.9 81.9,64.5 92.9,64.5 92.9,75.6 98.4,75.6 98.4,64.5 109.5,64.5 109.5,58.9" class="style0"/></g></g></svg>