<?xml version="1.0" encoding="utf-8"?>
<!-- Generator: Adobe Illustrator 14.0.0, SVG Export Plug-In . SVG Version: 6.00 Build 43363)  -->
<!DOCTYPE svg PUBLIC "-//W3C//DTD SVG 1.1//EN" "http://www.w3.org/Graphics/SVG/1.1/DTD/svg11.dtd">
<svg version="1.1" id="Layer_1" xmlns="http://www.w3.org/2000/svg" xmlns:xlink="http://www.w3.org/1999/xlink" x="0px" y="0px"
	 viewBox="0 0 24 24" enable-background="new 0 0 24 24" xml:space="preserve">
<g>
	<path d="M21,8.291h-1.949v2.6h-2.6v1.819h2.6v2.599H21V12.71h2.6v-1.885H21V8.291z"/>
	<path d="M7.614,10.306v2.925h3.899c-0.26,1.689-1.754,2.924-3.899,2.924c-2.34,0-4.29-2.016-4.29-4.354s1.885-4.354,4.29-4.354
		c1.104,0,2.014,0.326,2.794,1.105l2.08-2.079c-1.3-1.17-2.924-1.884-4.874-1.884C3.649,4.587,0.4,7.836,0.4,11.8
		s3.249,7.212,7.214,7.212c4.224,0,6.953-2.988,6.953-7.082c0-0.52-0.065-1.104-0.13-1.624H7.614z"/>
</g>
</svg>
