<svg xmlns="http://www.w3.org/2000/svg" width="200" height="200" viewBox="0 0 200 200"><g fill="#5B666B"><path d="M180.86 112.245a.658.658 0 0 0 .493-.314c.07-.105.108-.254.12-.45h.106v1.57h-3.49v-.105l.047-.04c.443-.422.814-.786 1.112-1.09.298-.303.536-.59.714-.867.18-.275.307-.563.383-.864s.115-.663.115-1.086c0-.21-.008-.4-.022-.57a1.814 1.814 0 0 0-.093-.444.623.623 0 0 0-.202-.29.566.566 0 0 0-.356-.104c-.07 0-.144.008-.218.023a.474.474 0 0 0-.35.268.673.673 0 0 0-.053.39l.016.13c.004.048.01.09.016.132.005.04.008.068.008.083 0 .128-.045.216-.13.265s-.19.072-.308.072c-.035 0-.08-.002-.133-.008a.425.425 0 0 1-.154-.042c-.05-.022-.09-.062-.126-.114s-.055-.13-.055-.227c0-.085.03-.19.088-.315.06-.125.15-.244.276-.355a1.6 1.6 0 0 1 .488-.287c.202-.08.445-.12.73-.12.286 0 .53.044.734.128.204.085.37.196.5.333.13.14.227.296.284.475.06.178.088.363.088.55 0 .083-.01.18-.034.292a1.93 1.93 0 0 1-.123.374c-.058.138-.14.286-.244.444a3.34 3.34 0 0 1-.41.497l-.55.565-1.132 1.118h1.683c.038 0 .096-.006.177-.013zM183.92 109.857a4.83 4.83 0 0 1 .09-.596c.042-.212.105-.423.19-.635.084-.21.194-.4.333-.57.137-.167.307-.305.508-.413a1.55 1.55 0 0 1 .724-.16c.31 0 .574.058.79.172.212.115.39.262.526.438s.243.373.316.592a4.207 4.207 0 0 1 .227 1.228 6.026 6.026 0 0 1-.015.872 4.97 4.97 0 0 1-.087.596 3.486 3.486 0 0 1-.19.63c-.085.21-.196.4-.333.57-.138.172-.308.31-.51.414a1.56 1.56 0 0 1-.723.157c-.31 0-.572-.055-.787-.168a1.546 1.546 0 0 1-.527-.436 2.027 2.027 0 0 1-.318-.592c-.074-.22-.13-.43-.164-.64a4.146 4.146 0 0 1-.062-.58c-.004-.18-.007-.318-.007-.415a4.44 4.44 0 0 1 .02-.463zm1.03 1.704c.013.348.046.63.103.85.056.22.14.382.248.485.11.105.265.157.464.157s.354-.052.463-.157c.11-.104.193-.266.25-.485.055-.22.09-.502.102-.85.013-.347.02-.76.02-1.24 0-.503-.007-.93-.02-1.276a4.05 4.05 0 0 0-.104-.846c-.056-.215-.14-.37-.25-.467-.108-.093-.263-.14-.462-.14s-.354.053-.463.156c-.108.104-.19.268-.247.486-.057.22-.09.502-.104.846-.013.344-.02.758-.02 1.242 0 .48.008.893.02 1.24zM190.508 113.052v-.106h.72v-4.766c-.17.09-.337.186-.506.28-.17.1-.335.193-.497.286l-.062-.1c.183-.108.347-.202.49-.285a6.67 6.67 0 0 0 .78-.514c.127-.1.268-.22.42-.363h.307v5.463h.703v.106h-2.355zM195.63 109.514c.124-.395.294-.743.51-1.044.218-.302.477-.54.774-.72a1.85 1.85 0 0 1 1.373-.22c.133.034.252.087.355.155a.72.72 0 0 1 .348.64c0 .3-.152.45-.46.45-.177 0-.296-.03-.358-.092a.33.33 0 0 1-.09-.244c0-.093.02-.187.064-.28a.61.61 0 0 0 .064-.25.415.415 0 0 0-.012-.076.305.305 0 0 0-.152-.203.424.424 0 0 0-.203-.04.876.876 0 0 0-.48.13c-.134.087-.25.2-.347.34a1.96 1.96 0 0 0-.24.487 5.592 5.592 0 0 0-.26 1.127c-.024.187-.043.355-.06.51l.017.014c.035-.047.078-.1.125-.157.05-.06.11-.114.188-.165.077-.05.17-.092.28-.125s.24-.05.394-.05c.234 0 .457.044.666.132a1.798 1.798 0 0 1 .938.915c.095.21.142.434.142.673 0 .24-.053.465-.156.674-.105.21-.243.393-.414.55s-.366.282-.585.372a1.78 1.78 0 0 1-.673.133c-.27 0-.523-.054-.76-.157s-.443-.258-.617-.462-.31-.456-.41-.754c-.1-.3-.148-.64-.148-1.02 0-.437.062-.85.187-1.246zm2.37.666c-.113-.247-.312-.37-.592-.37-.103 0-.224.02-.363.06-.14.04-.27.14-.387.29-.037.048-.066.093-.092.14s-.047.102-.064.172a1.39 1.39 0 0 0-.04.256c-.007.103-.01.23-.01.383 0 .464.028.827.087 1.09.058.264.132.457.222.582.088.126.186.202.29.23a1.134 1.134 0 0 0 .62-.005c.1-.03.186-.105.26-.226s.133-.296.176-.53a5.62 5.62 0 0 0 .064-.964c0-.49-.057-.858-.172-1.106z"/></g><g fill="#5B666B"><path d="M5.423 107.605v1.308h-.1c-.026-.087-.07-.198-.13-.333s-.146-.266-.256-.395a1.528 1.528 0 0 0-.425-.332 1.316 1.316 0 0 0-.635-.142H2.662v2.365h.428c.188 0 .348-.027.478-.08a.88.88 0 0 0 .326-.23c.086-.1.158-.22.214-.36a2.81 2.81 0 0 0 .138-.47h.1v2.38h-.1a4.842 4.842 0 0 0-.126-.43 1.237 1.237 0 0 0-.195-.362.9.9 0 0 0-.302-.25.98.98 0 0 0-.447-.09h-.514v2.762h1.254c.235 0 .446-.04.635-.12.19-.078.357-.188.502-.332.145-.142.267-.31.363-.5s.17-.397.222-.616h.1v1.675H.85v-.106h.703v-5.233H.85v-.106h4.573zM8.215 111.354c.01.062.028.14.053.24a2.54 2.54 0 0 0 .295.674c.074.12.164.23.27.332.118.12.23.207.34.27.11.06.215.104.314.133s.194.043.283.047l.25.003c.27 0 .49-.042.665-.126.173-.085.31-.188.41-.31.1-.123.17-.25.21-.386.04-.136.06-.253.06-.356a.77.77 0 0 0-.133-.467 1.084 1.084 0 0 0-.355-.305 2.57 2.57 0 0 0-.505-.207l-.582-.172c-.2-.06-.393-.128-.58-.207a1.88 1.88 0 0 1-.506-.307 1.37 1.37 0 0 1-.356-.464 1.565 1.565 0 0 1-.134-.688c0-.203.046-.4.138-.59s.22-.355.382-.5a1.986 1.986 0 0 1 1.324-.487c.167 0 .315.016.442.046a3.585 3.585 0 0 1 .594.19.515.515 0 0 0 .203.048c.07 0 .12-.012.14-.035a.4.4 0 0 0 .074-.125h.123v1.453h-.1c-.06-.18-.126-.354-.195-.527a1.97 1.97 0 0 0-.263-.47 1.26 1.26 0 0 0-.406-.342 1.325 1.325 0 0 0-.62-.13c-.205 0-.385.03-.54.085-.156.057-.287.13-.395.222a1.015 1.015 0 0 0-.245.306.767.767 0 0 0-.084.347.68.68 0 0 0 .14.442c.096.117.22.218.372.3.153.087.328.16.524.22s.398.125.604.19.408.14.604.22c.196.08.37.18.523.3.153.124.277.272.37.444.095.175.143.39.143.645 0 .248-.05.485-.153.71-.103.224-.246.42-.432.59a2.12 2.12 0 0 1-.665.4c-.258.1-.544.15-.86.15-.16 0-.316-.018-.472-.047a9.18 9.18 0 0 1-.796-.192.906.906 0 0 0-.233-.045c-.07 0-.123.012-.153.034-.03.022-.058.07-.083.14H8.1v-1.697h.115zM15.973 107.712c-.19 0-.357.02-.505.058a1.03 1.03 0 0 0-.398.2 1.3 1.3 0 0 0-.313.392c-.09.17-.176.385-.252.643h-.1v-1.398h4.797v1.398h-.1a3.435 3.435 0 0 0-.252-.643 1.303 1.303 0 0 0-.314-.393 1.033 1.033 0 0 0-.397-.2 1.986 1.986 0 0 0-.506-.058h-.275v5.233h.703v.106h-2.517v-.105h.704v-5.233h-.277zM20.64 112.203a.522.522 0 0 1 .38-.16c.15 0 .277.053.384.16a.52.52 0 0 1 .16.383c0 .146-.053.273-.16.378s-.235.157-.383.157a.53.53 0 0 1-.38-.156.51.51 0 0 1-.16-.378.52.52 0 0 1 .16-.383z"/></g><path fill="#5B666B" d="M30.335 31.94l1.513-.626.154.4c-.866.352-1.74.723-2.613 1.093-1.465.623-2.417 1.042-2.657 1.145l-.167-.395 1.515-.66-3.82-9c-2.073.913-2.45 1.705-1.975 3.53l.207.645-.43.165-.517-1.376c-.187-.518-.32-.83-.474-1.194-.16-.38-.262-.62-.36-.81l.234-.233.553-.182c.35-.115 1.97-.802 3.562-1.478 1.526-.632 3.162-1.36 3.31-1.443.333-.16.65-.31.764-.357l.323-.02c.23.616.47 1.262 1.37 3.34l-.397.203-.603-1.107c-.846-1.288-1.483-1.416-3.313-.64l3.82 9zM39 23.133c1.428-.452 1.69-.532 4.05-1.236l-1.342-4.404-1.482.436-.125-.41s1.22-.356 2.712-.81c.834-.256 1.683-.514 2.512-.784l.125.41-1.475.465 2.89 9.48 1.483-.436.125.41c-.868.25-1.746.517-2.61.78-.876.27-1.755.535-2.613.813l-.125-.41 1.474-.465-1.402-4.593c-.697.228-1.414.446-2.117.66a65.83 65.83 0 0 1-1.935.574l1.4 4.594 1.482-.437.125.41c-1.13.33-2.36.705-2.813.843-.82.25-1.654.504-2.47.77l-.124-.41 1.487-.47-2.892-9.48-1.495.44-.125-.41c.867-.247 1.73-.51 2.593-.774A163.78 163.78 0 0 0 39 17.852l.126.41-1.474.464L39 23.133zM55.222 19.205l1.028 4.755.766-.155c1.45-.312 2.228-.485 2.786-1.035.662-.666.608-1.467.536-2.59l.483-.084.194 1.568c.117.804.185 1.29.215 1.596.018.246-.003.297-.482.394-.12.024-.693.125-.813.15-1.712.332-3.425.664-5.134 1.012-.793.162-1.57.335-2.347.51l-.09-.436 1.513-.323-1.966-9.67-1.412.27-.09-.434c2.778-.55 5.69-1.126 8.293-1.764.1.494.156.764.31 1.373l.404 1.525-.434.167c-.723-1.868-1.36-2.237-3.85-1.732l-.82.183.822 4.283.578-.15c1.272-.353 1.496-.866 1.32-2.267l.45-.09c.058.518.13 1.02.492 2.803.055.27.182.9.338 1.508l-.45.09c-.46-1.42-.57-1.726-2.093-1.54l-.545.08zM75.79 15.756a183.82 183.82 0 0 1 4.22-.38l-.413-4.587-1.54.123-.04-.424s1.267-.1 2.822-.24c.868-.078 1.75-.158 2.62-.255l.038.426-1.538.156.89 9.875 1.54-.123.04.427c-.9.065-1.814.148-2.714.23-.914.082-1.828.165-2.727.26l-.04-.426 1.54-.154-.433-4.784c-.73.082-1.477.15-2.208.215-1.1.1-1.51.136-2.015.164l.432 4.784 1.54-.124.04.427c-1.175.09-2.455.206-2.927.25-.854.076-1.723.154-2.574.246l-.04-.427 1.554-.155-.89-9.874-1.556.125-.04-.42c.9-.067 1.8-.15 2.7-.23.93-.083 1.858-.167 2.802-.272l.04.427-1.54.154.413 4.586zM92.93 16.123l-.315-.91c-.55-1.545-.716-2.076-1.067-3.123l-1.11 4.103 2.492-.07zm2.208-.4c.247.637.496 1.288.728 1.94.48 1.302.546 1.484.874 2.24l1.207-.018.013.428c-.812.007-1.637.03-2.463.053-.9.026-1.804.05-2.706.09l-.01-.427 1.42-.056-1.12-3.366-2.75.077-.917 3.422 1.454-.04.012.443c-.552 0-1.102.015-1.653.03-.55.016-1.208.035-1.773.066l-.013-.443 1.24-.035c.338-.99.603-1.915 1.23-4.136l.75-2.685c.61-2.266.734-2.76.965-3.807l1.33-.037c.035.106.067.212.1.32.204.666.336 1.03 1.236 3.622l.848 2.32zM105.11 14.62c.903.023 1.01.026 1.257-.014.752-.12 1.438-.577 1.475-2.152.047-1.835-.704-2.42-1.76-2.445-.046-.002-.72-.02-.83.147-.03.044-.047.075-.04.427l-.1 4.037zm.646-5.047c.338-.008.674-.014 1.025-.006.583.015 1.743.074 2.552.798.42.362.848 1 .826 1.917-.03 1.223-.84 2.35-2.772 2.58-.23.024-.46.033-.69.043l.58.12c1.732.44 2.457.842 2.572 3.003l.018.566c.016.597.13 1.58.802 1.595.046 0 .26.005.265-.21.003-.09-.127-.446-.124-.538.006-.275.256-.468.516-.462.306.008.544.274.535.625-.013.597-.685 1.085-1.815 1.058-2.202-.054-2.356-1.85-2.404-2.37l-.015-.597c-.075-1.35-.153-2.513-1.896-2.556l-.628-.016-.12 4.832 1.515.053-.01.426c-.153-.003-1.086-.042-2.462-.076-.995-.024-1.988-.05-2.982-.058l.01-.428 1.515.022c.045-.58.072-1.054.133-2.905l.173-6.972-1.422-.05.01-.443c.246.005 1.485.052 1.606.054.628.015 1.087.01 1.806-.002l.884-.005zM119.832 15.337c.898.077 1.006.086 1.254.06.758-.072 1.47-.486 1.604-2.056.158-1.828-.556-2.458-1.607-2.548-.045-.003-.715-.062-.836.097-.035.042-.053.07-.068.423l-.348 4.024zm.952-5c.337.014.673.027 1.023.058.58.05 1.735.18 2.497.95a2.41 2.41 0 0 1 .706 1.966c-.104 1.22-.98 2.296-2.923 2.405-.232.01-.462.007-.69.002l.57.156c1.702.546 2.4.99 2.384 3.152l-.018.567c-.02.597.033 1.584.704 1.642.045.003.26.02.277-.192.007-.09-.1-.453-.092-.544.024-.275.284-.452.544-.43.305.027.527.307.496.658-.05.594-.75 1.04-1.877.944-2.194-.188-2.24-1.99-2.256-2.512l.02-.598c.01-1.35.002-2.518-1.735-2.667l-.625-.053-.414 4.815 1.508.146-.036.428c-.152-.013-1.08-.108-2.452-.226-.99-.085-1.98-.17-2.974-.24l.037-.427 1.51.114c.08-.577.137-1.048.31-2.89l.598-6.95-1.415-.138.037-.442c.244.02 1.478.142 1.6.153.624.053 1.083.077 1.802.11l.887.044zM133.7 22.294l1.513.234-.062.424c-.876-.142-1.77-.27-2.664-.4-.924-.135-1.848-.268-2.773-.387l.06-.424 1.534.208 1.42-9.816-1.528-.237.06-.428c.97.155 1.953.298 2.923.438.848.122 1.682.243 2.517.353l-.062.424-1.518-.204-1.42 9.816zM140.48 20.123c-.03.916-.1 3.337 2.27 3.818 1.527.312 2.496-.538 2.69-1.498.236-1.154-.614-1.655-1.537-2.186l-.8-.444c-.904-.543-2.7-1.61-2.256-3.8.39-1.92 2.188-2.85 3.867-2.508.975.198 1.6.73 2.024 1.098l.53-.376.334.195c-.248.84-.322 1.122-.41 1.557a9.726 9.726 0 0 0-.193 1.41l-.505.023c.02-.714.027-1.057-.047-1.462-.18-.88-.834-1.73-1.898-1.947-1.005-.204-2.023.276-2.228 1.28-.22 1.08.646 1.585 1.71 2.19l.646.35c.932.565 2.684 1.624 2.223 3.888-.395 1.95-2.173 3.242-4.24 2.822-1.155-.235-1.868-.88-2.42-1.382l-.52.55-.386-.25c.14-.456.273-.96.386-1.515.122-.6.227-1.42.278-1.832l.482.023zM159.09 17.5c-.645-.19-1.463-.176-2.275.637-.965.943-1.616 2.984-1.807 3.63-.507 1.715-1.157 5 1.176 5.688 2.053.606 3.276-1.647 4.057-4.288.537-1.818 1.198-4.972-1.15-5.666M156 27.865c-2.73-.806-4.517-3.822-3.61-6.888.792-2.684 3.675-4.83 6.77-3.917 2.875.848 4.63 3.87 3.708 6.995-.928 3.14-4.125 4.62-6.868 3.81M175.04 30.634a75.213 75.213 0 0 0-1.403 3.444l-1.002-.418a79.11 79.11 0 0 0-.455-2.81l-1.474-8.472-3.495 8.54 1.52.65-.163.397c-.616-.274-1.252-.54-1.873-.798-.536-.223-1.088-.453-1.63-.663l.165-.395 1.417.573c.098-.274.21-.542.322-.81.48-1.16.95-2.323 1.433-3.48.665-1.596 1.34-3.173 2.04-4.737-.176-.173-.24-.217-.616-.39l-.77-.337.164-.4c.588.262 1.394.6 2.156.917.79.33 1.045.436 1.616.66.13.8.297 1.83.398 2.42l1.037 6.103 2.73-6.306-1.577-.673.165-.397c.587.262 1.18.508 1.773.755.594.248 1.2.5 1.8.736l-.165.396-1.434-.58c-.18.39-1.036 2.286-1.213 2.71l-1.468 3.364zM143.09 76.073c.567 0 .567-.255.567-.567v-3.83c0-.31-.255-.445-.567-.445h-34.625c-.312 0-.567.136-.567.448v3.944c0 .312.104.536.574.536 5.744 0 6.972.812 6.972 4.173v14.05c0 8.807-1.88 9.944-15.016 9.944h-.067c-13.134 0-15.014-1.137-15.014-9.943V80.33c0-3.36 1.228-4.172 6.972-4.172.47 0 .574-.224.574-.536v-3.944c0-.312-.255-.447-.566-.447H57.698c-.312 0-.567.135-.567.447v3.83c0 .31 0 .566.568.566 5.458 0 6.98 1.34 6.98 4.96v47.2c0 3.62-1.522 4.96-6.98 4.96-.567 0-.567.254-.567.565v3.83c0 .31.256.444.568.444h34.626c.31 0 .566-.135.566-.447v-3.943c0-.312-.104-.536-.574-.536-5.744 0-6.972-.812-6.972-4.172v-14.052c0-8.805 1.88-9.942 15.015-9.942h.066c13.135 0 15.016 1.138 15.016 9.942v14.052c0 3.36-1.228 4.172-6.972 4.172-.47 0-.574.224-.574.536v3.943c0 .312.255.447.567.447h34.625c.312 0 .567-.134.567-.445v-3.83c0-.31 0-.564-.567-.564-5.457 0-6.98-1.34-6.98-4.96v-47.2c.003-3.62 1.525-4.96 6.982-4.96M37.622 188.818a2.788 2.788 0 0 0 .38 1.002c.082.13.182.253.3.365.127.128.25.226.372.292.12.067.234.116.344.146.108.03.21.048.31.05.098.004.188.005.272.005.296 0 .54-.046.73-.14a1.23 1.23 0 0 0 .678-.762c.044-.145.066-.275.066-.388a.845.845 0 0 0-.147-.51 1.16 1.16 0 0 0-.39-.335 2.775 2.775 0 0 0-.553-.227l-.637-.19a6.22 6.22 0 0 1-.636-.224c-.206-.086-.39-.198-.552-.335s-.292-.306-.39-.506c-.097-.203-.145-.454-.145-.755 0-.225.05-.438.15-.646.1-.206.24-.39.42-.548.177-.16.39-.29.64-.386.25-.1.518-.147.808-.147.186 0 .348.017.487.05a4.34 4.34 0 0 1 .65.21c.08.032.154.05.222.05.077 0 .128-.013.154-.037a.47.47 0 0 0 .08-.14h.134v1.593h-.11c-.066-.196-.137-.39-.212-.58a2.205 2.205 0 0 0-.288-.514 1.378 1.378 0 0 0-.444-.373 1.45 1.45 0 0 0-.68-.144c-.222 0-.42.03-.59.092-.17.062-.313.143-.43.244-.118.1-.208.213-.27.335a.842.842 0 0 0-.09.377c0 .195.05.356.154.485s.24.237.406.33c.168.092.36.17.574.24.215.065.435.136.662.208.226.072.447.15.662.238s.406.197.574.33c.167.135.303.297.406.486s.155.425.155.703a1.92 1.92 0 0 1-.64 1.424c-.204.185-.447.332-.73.44s-.594.162-.94.162a2.69 2.69 0 0 1-.516-.05c-.17-.034-.33-.068-.477-.104a8.094 8.094 0 0 1-.394-.105c-.116-.033-.2-.05-.257-.05-.078 0-.134.013-.167.038s-.064.077-.092.155H37.5v-1.86h.122zM48.183 188.2h1.927l-.988-2.288-.94 2.287zm-1.106 2.36l2.496-6.08h.227l2.638 6.08h.72v.118h-2.813v-.117h.778l-.97-2.243h-2.01l-.93 2.244h.745v.118h-1.583v-.117h.702zM59.39 184.715l2.79 3.986h.016v-3.868h-.772v-.117H63.1v.117h-.77v5.846h-.227l-3.77-5.37h-.016v5.253h.77v.118h-1.674v-.117h.77v-5.728h-.77v-.117zM74.348 184.832v-.117h4.95v1.432h-.108c-.08-.2-.164-.383-.256-.544a1.72 1.72 0 0 0-.322-.415 1.335 1.335 0 0 0-.432-.264 1.673 1.673 0 0 0-.582-.092h-1.265v2.696h.47c.206 0 .38-.028.523-.09a.93.93 0 0 0 .356-.25c.095-.108.173-.24.234-.393a2.9 2.9 0 0 0 .15-.515h.11v2.604h-.11a4.99 4.99 0 0 0-.138-.47 1.422 1.422 0 0 0-.213-.396.974.974 0 0 0-.33-.272c-.132-.066-.295-.1-.49-.1h-.562v2.914h.78v.117h-2.766v-.117h.77v-5.73h-.77zM86.585 187.42c.25 0 .45-.033.595-.102a.737.737 0 0 0 .326-.27.932.932 0 0 0 .138-.39c.02-.147.03-.294.03-.445a3.5 3.5 0 0 0-.05-.633 1.145 1.145 0 0 0-.168-.434.71.71 0 0 0-.323-.256 1.377 1.377 0 0 0-.523-.084 1.91 1.91 0 0 0-.185.01c-.062.004-.123.01-.184.016v2.588h.345zm-2.33-2.588v-.117h1.266c.236 0 .467-.005.697-.012.228-.01.46-.014.695-.014.217 0 .448.02.69.065.243.045.465.122.666.23.2.11.368.256.5.44.13.185.196.415.196.695 0 .222-.05.414-.15.573-.1.158-.23.288-.39.39-.16.1-.336.178-.53.23a3.19 3.19 0 0 1-.58.104v.042c.275.05.52.1.734.15.215.05.4.125.557.225.157.102.28.24.373.42.092.178.15.418.172.72l.066.847c.017.21.04.376.07.493.032.118.074.196.127.235.052.04.13.06.23.06a.4.4 0 0 0 .276-.098 3.99 3.99 0 0 0 .192-.18l.083.075a3.78 3.78 0 0 1-.164.154.716.716 0 0 1-.183.122c-.07.034-.154.06-.255.08s-.227.03-.377.03c-.307 0-.547-.05-.72-.147a.994.994 0 0 1-.386-.364 1.21 1.21 0 0 1-.156-.473c-.02-.17-.032-.33-.038-.48-.01-.23-.026-.452-.046-.666a1.86 1.86 0 0 0-.138-.573.917.917 0 0 0-.327-.402c-.145-.1-.35-.15-.61-.15h-.553v3.023h.77v.117h-2.756v-.117h.77v-5.73h-.77zM95.798 188.2h1.927l-.988-2.288-.94 2.287zm-1.106 2.36l2.496-6.08h.226l2.638 6.08h.72v.118H97.96v-.117h.778l-.97-2.243h-2.01l-.93 2.244h.745v.118H93.99v-.117h.702zM107.005 184.715l2.79 3.986h.016v-3.868h-.77v-.117h1.675v.117h-.77v5.846h-.226l-3.77-5.37h-.017v5.253h.77v.118h-1.676v-.117h.77v-5.728h-.77v-.117zM120.53 186.424a7.9 7.9 0 0 0-.22-.582 2.375 2.375 0 0 0-.336-.562 1.645 1.645 0 0 0-.512-.42c-.203-.108-.456-.163-.758-.163-.406 0-.73.075-.963.227-.233.15-.41.36-.53.628s-.197.59-.23.96c-.035.37-.05.777-.05 1.217 0 .58.032 1.06.1 1.44.067.38.17.682.313.904.143.225.326.38.553.47.228.09.496.134.81.134.25 0 .478-.05.683-.15.202-.1.382-.233.538-.398.156-.164.288-.354.395-.565a2.86 2.86 0 0 0 .234-.66h.134v1.774h-.133a.312.312 0 0 0-.1-.14.35.35 0 0 0-.177-.037c-.067 0-.153.016-.26.046s-.228.064-.365.1a7.43 7.43 0 0 1-.447.1 3.033 3.033 0 0 1-1.693-.192 3.19 3.19 0 0 1-1.69-1.63 2.847 2.847 0 0 1-.26-1.213c0-.475.096-.905.288-1.29a3.296 3.296 0 0 1 1.75-1.62c.37-.148.736-.223 1.094-.223.178 0 .345.018.498.05.154.034.295.07.427.106.132.036.25.07.356.104s.195.05.268.05a.4.4 0 0 0 .176-.03c.04-.018.066-.066.084-.145h.134v1.71h-.11zM128.454 184.715v.117h-.77v5.73h.77v.116H125.7v-.117h.77v-5.728h-.77v-.117zM133.622 188.818c.01.068.03.154.06.264a2.698 2.698 0 0 0 .322.738c.08.13.18.253.297.365.13.128.253.226.373.292.12.067.235.116.344.146.108.03.212.048.31.05s.188.005.272.005c.295 0 .537-.046.728-.14a1.226 1.226 0 0 0 .677-.762c.045-.145.066-.275.066-.388 0-.206-.048-.377-.145-.51s-.228-.247-.39-.335a2.8 2.8 0 0 0-.552-.227c-.207-.062-.42-.124-.637-.19-.22-.063-.43-.138-.637-.224-.208-.086-.392-.198-.554-.335s-.292-.306-.39-.506c-.097-.203-.146-.454-.146-.755 0-.225.05-.438.15-.646.1-.206.24-.39.42-.548a2.1 2.1 0 0 1 .64-.386c.248-.1.52-.147.81-.147.184 0 .346.017.485.05a4.34 4.34 0 0 1 .648.21.59.59 0 0 0 .222.05c.08 0 .13-.013.155-.037a.47.47 0 0 0 .08-.14h.133v1.593h-.107c-.068-.196-.14-.39-.214-.58s-.172-.36-.29-.514a1.368 1.368 0 0 0-.443-.373 1.45 1.45 0 0 0-.68-.144c-.224 0-.42.03-.59.092a1.41 1.41 0 0 0-.433.244c-.116.1-.205.213-.268.335a.842.842 0 0 0-.093.377c0 .195.053.356.154.485.105.128.24.237.408.33.167.092.358.17.573.24.216.065.438.136.663.208s.447.15.662.238.406.197.573.33c.167.135.303.297.407.486.102.19.154.425.154.703 0 .274-.058.533-.17.78s-.27.46-.473.644a2.278 2.278 0 0 1-.728.44 2.62 2.62 0 0 1-.944.162c-.172 0-.344-.016-.515-.05a9.616 9.616 0 0 1-.873-.21c-.112-.032-.198-.05-.253-.05-.08 0-.135.014-.168.04-.033.023-.064.075-.092.153h-.135v-1.86h.132zM147.978 186.424a7.9 7.9 0 0 0-.222-.582 2.346 2.346 0 0 0-.336-.562 1.637 1.637 0 0 0-.51-.42c-.204-.108-.457-.163-.758-.163-.408 0-.73.075-.964.227-.233.15-.41.36-.532.628-.12.27-.197.59-.23.96s-.05.777-.05 1.217c0 .58.034 1.06.1 1.44.067.38.173.682.315.904.143.225.327.38.554.47s.496.134.81.134c.25 0 .478-.05.68-.15.206-.1.386-.233.542-.398.156-.164.287-.354.394-.565s.185-.432.235-.66h.133v1.774h-.133a.307.307 0 0 0-.102-.14.342.342 0 0 0-.176-.037c-.066 0-.153.016-.26.046-.105.03-.227.064-.364.1a7.47 7.47 0 0 1-.448.1c-.162.032-.332.047-.512.047-.407 0-.8-.08-1.18-.238a3.235 3.235 0 0 1-1.002-.655 3.17 3.17 0 0 1-.688-.975 2.847 2.847 0 0 1-.26-1.215c0-.475.096-.905.287-1.29a3.316 3.316 0 0 1 1.75-1.62 2.945 2.945 0 0 1 1.093-.223c.18 0 .346.018.5.05.152.034.295.07.426.106.132.036.25.07.355.104s.194.05.27.05a.4.4 0 0 0 .175-.03c.04-.018.066-.066.084-.145h.133v1.71h-.11zM154.637 189.158c.066.382.172.686.313.913.143.227.327.385.553.474.227.09.495.134.81.134.412 0 .736-.076.97-.23.235-.153.41-.365.528-.637.118-.27.192-.59.224-.962.03-.37.045-.775.045-1.21 0-.392-.013-.764-.038-1.12a2.842 2.842 0 0 0-.214-.937 1.46 1.46 0 0 0-.532-.643c-.237-.16-.564-.24-.983-.24-.392 0-.704.076-.938.224a1.408 1.408 0 0 0-.535.624c-.123.27-.205.588-.243.956-.04.368-.06.773-.06 1.214 0 .58.032 1.06.1 1.444m-1.178-2.734a3.316 3.316 0 0 1 1.755-1.62 2.96 2.96 0 0 1 1.097-.224c.386 0 .767.072 1.144.218s.712.353 1.005.62.53.593.713.977c.182.38.27.812.27 1.293 0 .42-.083.816-.254 1.193s-.4.708-.688.994a3.27 3.27 0 0 1-.996.674 3.045 3.045 0 0 1-2.383.01 3.208 3.208 0 0 1-1.692-1.63 2.862 2.862 0 0 1-.26-1.215c0-.475.097-.905.29-1.29"/></svg>