<svg version="1.1" id="Layer_1" xmlns="http://www.w3.org/2000/svg" xmlns:xlink="http://www.w3.org/1999/xlink" x="0px" y="0px"
	 width="200px" height="200px" viewBox="0 0 200 200" enable-background="new 0 0 200 200" xml:space="preserve">
<g>
	<path fill="#5B666B" d="M180.86,112.245c0.082-0.009,0.167-0.036,0.257-0.085c0.09-0.048,0.168-0.125,0.236-0.229
		c0.069-0.105,0.108-0.254,0.119-0.449h0.107v1.569h-3.488v-0.106l0.046-0.039c0.443-0.423,0.814-0.787,1.112-1.09
		c0.299-0.304,0.537-0.592,0.715-0.868c0.18-0.275,0.307-0.563,0.383-0.864s0.115-0.663,0.115-1.086c0-0.209-0.008-0.399-0.022-0.57
		c-0.017-0.172-0.047-0.318-0.093-0.444c-0.045-0.124-0.113-0.222-0.202-0.29c-0.089-0.069-0.208-0.104-0.356-0.104
		c-0.07,0-0.143,0.008-0.217,0.023c-0.075,0.015-0.143,0.045-0.203,0.088s-0.111,0.104-0.148,0.18
		c-0.039,0.076-0.059,0.178-0.059,0.305c0,0.016,0.002,0.045,0.008,0.085c0.006,0.041,0.01,0.085,0.016,0.13
		c0.004,0.047,0.01,0.09,0.016,0.131c0.005,0.04,0.008,0.068,0.008,0.083c0,0.128-0.045,0.216-0.131,0.265s-0.188,0.072-0.307,0.072
		c-0.035,0-0.08-0.002-0.133-0.008c-0.054-0.004-0.105-0.019-0.153-0.042c-0.049-0.022-0.091-0.062-0.126-0.114
		s-0.055-0.129-0.055-0.227c0-0.086,0.03-0.191,0.088-0.316c0.06-0.125,0.15-0.244,0.276-0.355c0.126-0.113,0.288-0.208,0.489-0.287
		c0.202-0.08,0.445-0.119,0.73-0.119c0.286,0,0.531,0.043,0.734,0.127c0.204,0.084,0.371,0.195,0.501,0.332
		c0.13,0.139,0.226,0.296,0.283,0.475c0.06,0.178,0.088,0.363,0.088,0.551c0,0.082-0.011,0.179-0.034,0.291
		c-0.023,0.111-0.063,0.236-0.123,0.374c-0.058,0.138-0.14,0.286-0.244,0.444c-0.104,0.158-0.24,0.324-0.41,0.497l-0.55,0.565
		l-1.132,1.118h1.682C180.721,112.257,180.779,112.252,180.86,112.245z"/>
	<path fill="#5B666B" d="M183.921,109.857c0.015-0.186,0.044-0.385,0.088-0.596c0.043-0.213,0.106-0.424,0.19-0.636
		c0.085-0.211,0.195-0.401,0.334-0.569c0.137-0.168,0.307-0.306,0.508-0.414c0.202-0.105,0.443-0.16,0.723-0.16
		c0.311,0,0.574,0.058,0.789,0.172c0.213,0.115,0.39,0.262,0.527,0.438s0.243,0.373,0.316,0.592c0.074,0.22,0.131,0.436,0.166,0.646
		c0.035,0.213,0.056,0.406,0.061,0.582s0.008,0.312,0.008,0.408c0,0.123-0.008,0.277-0.023,0.464s-0.045,0.386-0.088,0.596
		c-0.043,0.213-0.106,0.423-0.191,0.631c-0.084,0.21-0.195,0.4-0.332,0.57c-0.138,0.171-0.308,0.31-0.509,0.413
		c-0.202,0.104-0.442,0.157-0.724,0.157c-0.311,0-0.572-0.056-0.787-0.169c-0.214-0.111-0.391-0.257-0.527-0.436
		c-0.139-0.178-0.244-0.377-0.318-0.592c-0.074-0.219-0.129-0.431-0.164-0.64c-0.036-0.21-0.057-0.403-0.062-0.581
		c-0.004-0.18-0.007-0.317-0.007-0.414C183.897,110.198,183.904,110.043,183.921,109.857z M184.949,111.561
		c0.014,0.347,0.047,0.63,0.104,0.849c0.056,0.22,0.139,0.382,0.248,0.485c0.109,0.105,0.264,0.157,0.463,0.157
		s0.354-0.052,0.463-0.157c0.109-0.104,0.193-0.266,0.249-0.485c0.056-0.219,0.091-0.502,0.103-0.849
		c0.014-0.348,0.02-0.76,0.02-1.24c0-0.504-0.006-0.931-0.02-1.277c-0.012-0.347-0.047-0.628-0.103-0.846
		c-0.056-0.215-0.14-0.371-0.249-0.467c-0.109-0.094-0.264-0.141-0.463-0.141s-0.354,0.053-0.463,0.156
		c-0.109,0.104-0.192,0.268-0.248,0.486c-0.057,0.219-0.09,0.502-0.104,0.846c-0.012,0.344-0.02,0.758-0.02,1.242
		C184.93,110.801,184.938,111.213,184.949,111.561z"/>
	<path fill="#5B666B" d="M190.508,113.052v-0.106h0.719v-4.766c-0.169,0.091-0.336,0.186-0.505,0.281
		c-0.169,0.098-0.335,0.192-0.497,0.285l-0.062-0.1c0.183-0.108,0.347-0.202,0.489-0.285c0.143-0.08,0.277-0.162,0.402-0.244
		c0.125-0.08,0.25-0.172,0.379-0.271c0.127-0.1,0.268-0.221,0.42-0.363h0.307v5.463h0.703v0.106H190.508z"/>
	<path fill="#5B666B" d="M195.629,109.514c0.125-0.395,0.295-0.743,0.512-1.044c0.217-0.302,0.476-0.541,0.773-0.719
		c0.299-0.179,0.621-0.269,0.968-0.269c0.138,0,0.272,0.018,0.405,0.049c0.133,0.033,0.252,0.086,0.355,0.154
		c0.105,0.068,0.189,0.155,0.253,0.26s0.095,0.23,0.095,0.379c0,0.301-0.152,0.451-0.459,0.451c-0.178,0-0.297-0.029-0.359-0.092
		c-0.061-0.061-0.091-0.143-0.091-0.244c0-0.092,0.021-0.186,0.065-0.28c0.043-0.094,0.064-0.177,0.064-0.248
		c0-0.016-0.004-0.04-0.012-0.077c-0.008-0.035-0.022-0.071-0.046-0.106c-0.022-0.036-0.058-0.067-0.106-0.097
		c-0.049-0.027-0.117-0.041-0.203-0.041c-0.184,0-0.343,0.043-0.479,0.129c-0.135,0.088-0.251,0.201-0.348,0.341
		c-0.098,0.142-0.178,0.302-0.241,0.487c-0.063,0.183-0.117,0.371-0.16,0.562c-0.044,0.191-0.077,0.38-0.1,0.565
		c-0.023,0.188-0.042,0.356-0.058,0.51l0.016,0.015c0.035-0.046,0.078-0.099,0.125-0.156c0.05-0.06,0.111-0.114,0.188-0.165
		c0.077-0.051,0.17-0.092,0.28-0.125s0.241-0.051,0.394-0.051c0.234,0,0.457,0.045,0.666,0.133c0.209,0.09,0.395,0.213,0.555,0.368
		s0.287,0.338,0.383,0.547c0.094,0.21,0.141,0.434,0.141,0.673c0,0.24-0.053,0.465-0.156,0.674
		c-0.104,0.209-0.242,0.393-0.413,0.551s-0.366,0.281-0.585,0.371c-0.22,0.089-0.444,0.134-0.674,0.134
		c-0.271,0-0.523-0.054-0.761-0.157s-0.442-0.258-0.616-0.462s-0.31-0.456-0.409-0.754c-0.1-0.299-0.149-0.64-0.149-1.021
		C195.441,110.323,195.504,109.909,195.629,109.514z M198,110.18c-0.113-0.247-0.312-0.371-0.592-0.371
		c-0.103,0-0.224,0.02-0.363,0.061c-0.141,0.041-0.27,0.139-0.387,0.291c-0.037,0.047-0.066,0.092-0.092,0.138
		s-0.047,0.103-0.064,0.173c-0.019,0.068-0.031,0.154-0.039,0.256c-0.008,0.103-0.012,0.229-0.012,0.383
		c0,0.463,0.029,0.826,0.088,1.09c0.059,0.263,0.133,0.456,0.223,0.581c0.088,0.126,0.186,0.202,0.29,0.229s0.202,0.042,0.295,0.042
		c0.116,0,0.226-0.015,0.325-0.046c0.099-0.03,0.186-0.105,0.26-0.226s0.133-0.297,0.176-0.532c0.043-0.234,0.064-0.556,0.064-0.963
		C198.172,110.796,198.115,110.428,198,110.18z"/>
</g>
<g>
	<path fill="#5B666B" d="M5.423,107.605v1.308h-0.1c-0.026-0.087-0.069-0.198-0.13-0.333s-0.146-0.266-0.256-0.395
		c-0.11-0.127-0.251-0.236-0.425-0.332c-0.173-0.094-0.385-0.142-0.635-0.142H2.662v2.364H3.09c0.188,0,0.348-0.027,0.478-0.08
		c0.13-0.054,0.238-0.13,0.326-0.229c0.086-0.1,0.158-0.22,0.214-0.36c0.056-0.14,0.102-0.297,0.138-0.47h0.1v2.379h-0.1
		c-0.036-0.147-0.078-0.29-0.126-0.429c-0.048-0.138-0.113-0.259-0.195-0.363c-0.082-0.104-0.182-0.188-0.302-0.249
		c-0.12-0.061-0.269-0.091-0.447-0.091H2.662v2.762h1.254c0.235,0,0.446-0.039,0.635-0.119c0.189-0.079,0.356-0.189,0.501-0.333
		c0.145-0.142,0.267-0.31,0.363-0.501s0.171-0.396,0.222-0.615h0.1v1.675H0.849v-0.106h0.704v-5.233H0.849v-0.106H5.423z"/>
	<path fill="#5B666B" d="M8.215,111.354c0.01,0.062,0.028,0.141,0.053,0.24c0.026,0.1,0.062,0.207,0.111,0.322
		c0.048,0.115,0.11,0.232,0.184,0.352c0.074,0.12,0.164,0.231,0.271,0.332c0.117,0.119,0.23,0.207,0.34,0.27
		c0.109,0.061,0.214,0.104,0.313,0.133s0.194,0.043,0.283,0.047c0.089,0.002,0.172,0.003,0.249,0.003
		c0.271,0,0.492-0.042,0.666-0.126c0.173-0.085,0.31-0.188,0.41-0.311c0.099-0.122,0.169-0.25,0.21-0.385
		c0.041-0.137,0.061-0.254,0.061-0.357c0-0.188-0.044-0.344-0.134-0.467c-0.089-0.121-0.208-0.224-0.355-0.305
		c-0.148-0.082-0.316-0.15-0.505-0.207c-0.189-0.056-0.382-0.113-0.582-0.172c-0.199-0.059-0.393-0.128-0.581-0.207
		c-0.189-0.078-0.357-0.181-0.505-0.307c-0.148-0.124-0.267-0.278-0.356-0.463c-0.089-0.182-0.134-0.412-0.134-0.688
		c0-0.203,0.046-0.4,0.138-0.589s0.219-0.356,0.382-0.501c0.164-0.146,0.358-0.263,0.585-0.352c0.227-0.09,0.473-0.135,0.739-0.135
		c0.168,0,0.316,0.016,0.443,0.046c0.128,0.03,0.24,0.063,0.337,0.096c0.096,0.034,0.182,0.065,0.256,0.095
		c0.074,0.032,0.142,0.047,0.203,0.047c0.071,0,0.119-0.012,0.141-0.035c0.023-0.022,0.047-0.064,0.073-0.125h0.122v1.453h-0.1
		c-0.061-0.179-0.126-0.354-0.195-0.527c-0.068-0.174-0.156-0.33-0.263-0.472c-0.108-0.14-0.243-0.253-0.406-0.341
		c-0.164-0.086-0.37-0.129-0.62-0.129c-0.204,0-0.384,0.028-0.539,0.084c-0.156,0.057-0.287,0.131-0.395,0.222
		c-0.107,0.093-0.188,0.194-0.245,0.306c-0.056,0.113-0.084,0.227-0.084,0.346c0,0.178,0.047,0.326,0.141,0.442
		c0.095,0.118,0.218,0.219,0.371,0.302c0.153,0.086,0.328,0.158,0.524,0.219s0.398,0.125,0.604,0.191s0.408,0.139,0.604,0.218
		c0.196,0.08,0.371,0.18,0.523,0.302c0.153,0.123,0.277,0.271,0.371,0.443c0.094,0.175,0.142,0.389,0.142,0.645
		c0,0.249-0.051,0.486-0.153,0.711c-0.103,0.224-0.246,0.42-0.432,0.589c-0.187,0.168-0.408,0.302-0.666,0.401
		c-0.258,0.1-0.544,0.149-0.861,0.149c-0.158,0-0.315-0.017-0.471-0.046c-0.155-0.031-0.301-0.062-0.436-0.096
		c-0.135-0.033-0.255-0.065-0.36-0.096c-0.104-0.031-0.182-0.046-0.233-0.046c-0.071,0-0.123,0.012-0.153,0.034
		c-0.031,0.023-0.059,0.07-0.084,0.142H8.1v-1.698H8.215z"/>
	<path fill="#5B666B" d="M15.973,107.712c-0.189,0-0.357,0.019-0.505,0.058c-0.148,0.038-0.281,0.104-0.398,0.199
		c-0.117,0.094-0.221,0.226-0.313,0.393c-0.091,0.17-0.176,0.385-0.252,0.643h-0.099v-1.398h4.796v1.398h-0.1
		c-0.076-0.258-0.161-0.473-0.252-0.643c-0.092-0.167-0.197-0.299-0.314-0.393c-0.117-0.095-0.25-0.161-0.397-0.199
		c-0.148-0.039-0.316-0.058-0.505-0.058h-0.275v5.233h0.704v0.106h-2.517v-0.106h0.704v-5.233H15.973z"/>
	<path fill="#5B666B" d="M20.639,112.203c0.107-0.107,0.235-0.16,0.382-0.16c0.148,0,0.276,0.053,0.383,0.16
		c0.107,0.106,0.16,0.234,0.16,0.383c0,0.146-0.053,0.273-0.16,0.378s-0.235,0.157-0.383,0.157c-0.147,0-0.275-0.053-0.382-0.157
		c-0.107-0.104-0.16-0.231-0.16-0.378C20.479,112.438,20.531,112.31,20.639,112.203z"/>
</g>
<path fill="#5B666B" d="M30.335,31.94l1.513-0.626l0.154,0.401c-0.866,0.351-1.739,0.722-2.613,1.092
	c-1.464,0.623-2.416,1.042-2.656,1.145l-0.167-0.395l1.515-0.66l-3.821-9c-2.073,0.913-2.451,1.705-1.975,3.531l0.207,0.644
	l-0.429,0.165l-0.518-1.376c-0.187-0.519-0.319-0.83-0.474-1.195c-0.162-0.38-0.263-0.62-0.361-0.811l0.234-0.232
	c0.189-0.063,0.364-0.121,0.553-0.182c0.35-0.116,1.97-0.803,3.562-1.479c1.527-0.632,3.163-1.36,3.312-1.443
	c0.332-0.158,0.65-0.309,0.763-0.356l0.323-0.021c0.229,0.617,0.47,1.263,1.369,3.342l-0.396,0.202l-0.603-1.107
	c-0.846-1.287-1.483-1.415-3.313-0.638L30.335,31.94z"/>
<path fill="#5B666B" d="M38.999,23.133c1.429-0.452,1.692-0.532,4.052-1.236l-1.343-4.404l-1.482,0.436l-0.125-0.409
	c0,0,1.218-0.356,2.711-0.811c0.834-0.255,1.683-0.513,2.512-0.783l0.125,0.409l-1.474,0.466l2.891,9.48l1.482-0.437l0.125,0.41
	c-0.868,0.249-1.746,0.517-2.609,0.78c-0.877,0.269-1.756,0.535-2.614,0.813l-0.125-0.41l1.474-0.465l-1.401-4.593
	c-0.697,0.229-1.414,0.447-2.117,0.661c-1.053,0.321-1.448,0.441-1.936,0.574l1.401,4.594l1.481-0.437l0.125,0.41
	c-1.131,0.329-2.36,0.704-2.813,0.842c-0.82,0.25-1.653,0.504-2.468,0.769l-0.125-0.409l1.487-0.47l-2.892-9.48l-1.496,0.44
	l-0.125-0.409c0.867-0.248,1.73-0.512,2.593-0.775c0.893-0.272,1.785-0.544,2.688-0.836l0.125,0.409l-1.474,0.465L38.999,23.133z"/>
<path fill="#5B666B" d="M55.222,19.205l1.028,4.755l0.766-0.155c1.451-0.312,2.228-0.485,2.786-1.035
	c0.662-0.666,0.608-1.467,0.536-2.591l0.483-0.083l0.193,1.568c0.117,0.804,0.185,1.29,0.215,1.596
	c0.019,0.246-0.002,0.297-0.481,0.394c-0.121,0.024-0.693,0.125-0.813,0.149c-1.712,0.333-3.425,0.665-5.134,1.013
	c-0.794,0.162-1.571,0.335-2.348,0.509l-0.089-0.435l1.512-0.323l-1.966-9.67l-1.412,0.271l-0.089-0.435
	c2.777-0.549,5.688-1.126,8.292-1.764c0.1,0.495,0.155,0.765,0.31,1.374l0.403,1.525l-0.434,0.167
	c-0.723-1.868-1.36-2.237-3.849-1.732l-0.822,0.183l0.823,4.283l0.578-0.149c1.272-0.353,1.496-0.866,1.319-2.267l0.45-0.091
	c0.059,0.519,0.13,1.02,0.493,2.804c0.055,0.271,0.182,0.9,0.338,1.508l-0.45,0.091c-0.46-1.421-0.569-1.727-2.093-1.541
	L55.222,19.205z"/>
<path fill="#5B666B" d="M75.789,15.756c1.492-0.15,1.766-0.175,4.222-0.38l-0.414-4.587l-1.541,0.124l-0.038-0.424
	c0,0,1.266-0.099,2.821-0.239c0.869-0.078,1.752-0.158,2.62-0.255l0.039,0.426l-1.538,0.155l0.89,9.875l1.541-0.124l0.04,0.427
	c-0.9,0.065-1.815,0.148-2.715,0.229c-0.914,0.083-1.828,0.166-2.727,0.262l-0.038-0.427l1.538-0.154l-0.432-4.784
	c-0.73,0.082-1.477,0.149-2.208,0.215c-1.098,0.099-1.509,0.136-2.014,0.164l0.432,4.785l1.541-0.124l0.039,0.427
	c-1.175,0.091-2.455,0.206-2.927,0.249c-0.854,0.077-1.723,0.155-2.574,0.247l-0.039-0.427l1.553-0.155l-0.891-9.875l-1.555,0.125
	l-0.04-0.422c0.901-0.066,1.8-0.148,2.7-0.229c0.929-0.083,1.858-0.167,2.802-0.272l0.039,0.427l-1.538,0.154L75.789,15.756z"/>
<path fill="#5B666B" d="M92.93,16.123l-0.315-0.91c-0.549-1.545-0.716-2.076-1.067-3.123l-1.109,4.103L92.93,16.123z M95.138,15.724
	c0.247,0.636,0.496,1.287,0.728,1.939c0.479,1.302,0.546,1.484,0.874,2.24l1.207-0.018l0.013,0.428
	c-0.812,0.007-1.637,0.031-2.463,0.053c-0.901,0.026-1.804,0.051-2.706,0.091l-0.012-0.428l1.422-0.055l-1.12-3.366l-2.752,0.077
	l-0.916,3.422l1.454-0.041l0.012,0.444c-0.551,0-1.101,0.015-1.652,0.031c-0.55,0.015-1.208,0.034-1.773,0.065l-0.013-0.443
	l1.238-0.035c0.339-0.989,0.604-1.915,1.231-4.136l0.751-2.685c0.61-2.266,0.733-2.76,0.964-3.807l1.331-0.037
	c0.034,0.106,0.066,0.212,0.1,0.319c0.203,0.667,0.335,1.031,1.235,3.623L95.138,15.724z"/>
<path fill="#5B666B" d="M105.111,14.621c0.902,0.022,1.01,0.025,1.256-0.015c0.752-0.119,1.438-0.577,1.475-2.152
	c0.047-1.835-0.704-2.419-1.76-2.445c-0.046-0.001-0.719-0.018-0.83,0.148c-0.031,0.044-0.047,0.075-0.041,0.427L105.111,14.621z
	 M105.756,9.573c0.338-0.008,0.674-0.014,1.025-0.006c0.582,0.015,1.742,0.074,2.551,0.798c0.42,0.362,0.848,1,0.826,1.917
	c-0.031,1.223-0.839,2.351-2.772,2.579c-0.229,0.025-0.46,0.034-0.689,0.044l0.579,0.121c1.732,0.44,2.457,0.841,2.572,3.002
	l0.018,0.566c0.016,0.597,0.129,1.579,0.802,1.595c0.046,0.001,0.261,0.006,0.265-0.208c0.003-0.091-0.127-0.447-0.124-0.539
	c0.007-0.275,0.257-0.468,0.517-0.462c0.306,0.008,0.544,0.274,0.535,0.625c-0.014,0.597-0.686,1.085-1.816,1.058
	c-2.202-0.054-2.356-1.849-2.404-2.37l-0.016-0.597c-0.075-1.349-0.153-2.513-1.896-2.556l-0.627-0.016l-0.119,4.832l1.514,0.053
	l-0.011,0.427c-0.152-0.003-1.085-0.042-2.461-0.076c-0.995-0.024-1.988-0.049-2.982-0.058l0.01-0.428l1.515,0.022
	c0.045-0.581,0.072-1.054,0.133-2.905l0.172-6.973l-1.422-0.05l0.01-0.443c0.245,0.005,1.484,0.052,1.605,0.054
	c0.628,0.016,1.087,0.012,1.806-0.001L105.756,9.573z"/>
<path fill="#5B666B" d="M119.832,15.337c0.898,0.077,1.006,0.086,1.254,0.061c0.758-0.073,1.47-0.487,1.604-2.057
	c0.158-1.829-0.556-2.459-1.607-2.549c-0.045-0.003-0.715-0.062-0.836,0.097c-0.035,0.043-0.053,0.072-0.068,0.424L119.832,15.337z
	 M120.784,10.337c0.337,0.014,0.673,0.027,1.023,0.058c0.579,0.05,1.735,0.179,2.497,0.951c0.396,0.387,0.785,1.05,0.706,1.965
	c-0.104,1.218-0.979,2.295-2.923,2.404c-0.232,0.011-0.462,0.007-0.691,0.002l0.57,0.156c1.703,0.546,2.402,0.99,2.385,3.152
	l-0.019,0.567c-0.021,0.597,0.033,1.584,0.704,1.642c0.045,0.003,0.259,0.021,0.277-0.192c0.007-0.091-0.1-0.453-0.092-0.544
	c0.023-0.275,0.283-0.452,0.543-0.429c0.305,0.026,0.527,0.306,0.496,0.657c-0.051,0.594-0.75,1.041-1.877,0.944
	c-2.194-0.188-2.239-1.989-2.256-2.512l0.021-0.598c0.008-1.35,0.001-2.518-1.736-2.667l-0.625-0.053l-0.414,4.815l1.508,0.146
	l-0.037,0.427c-0.152-0.013-1.081-0.108-2.452-0.226c-0.99-0.085-1.981-0.171-2.974-0.241l0.037-0.426l1.51,0.114
	c0.08-0.576,0.137-1.047,0.311-2.89l0.597-6.95l-1.415-0.137l0.037-0.442c0.244,0.021,1.478,0.142,1.6,0.153
	c0.624,0.053,1.083,0.077,1.802,0.109L120.784,10.337z"/>
<path fill="#5B666B" d="M133.699,22.294l1.514,0.234l-0.062,0.424c-0.877-0.142-1.771-0.271-2.665-0.401
	c-0.924-0.134-1.848-0.267-2.773-0.386l0.061-0.424l1.533,0.207l1.42-9.816l-1.528-0.237l0.062-0.428
	c0.968,0.155,1.952,0.298,2.922,0.438c0.848,0.122,1.682,0.243,2.517,0.353l-0.062,0.424l-1.518-0.204L133.699,22.294z"/>
<path fill="#5B666B" d="M140.48,20.123c-0.03,0.916-0.101,3.337,2.269,3.818c1.528,0.311,2.497-0.539,2.692-1.499
	c0.235-1.154-0.615-1.655-1.538-2.186l-0.8-0.444c-0.904-0.543-2.701-1.61-2.256-3.8c0.39-1.919,2.188-2.85,3.867-2.508
	c0.975,0.198,1.6,0.731,2.024,1.098l0.529-0.376l0.335,0.195c-0.248,0.839-0.322,1.121-0.41,1.556
	c-0.125,0.614-0.18,1.118-0.193,1.411l-0.504,0.022c0.021-0.714,0.027-1.057-0.047-1.462c-0.18-0.88-0.834-1.731-1.898-1.947
	c-1.005-0.205-2.023,0.275-2.228,1.28c-0.22,1.08,0.646,1.584,1.709,2.19l0.647,0.35c0.932,0.564,2.684,1.623,2.223,3.887
	c-0.396,1.949-2.174,3.242-4.242,2.822c-1.154-0.235-1.867-0.879-2.42-1.382l-0.519,0.55l-0.386-0.251
	c0.139-0.455,0.273-0.958,0.386-1.514c0.122-0.6,0.227-1.421,0.278-1.832L140.48,20.123z"/>
<path fill="#5B666B" d="M159.091,17.501c-0.646-0.19-1.464-0.177-2.276,0.636c-0.965,0.943-1.616,2.984-1.807,3.629
	c-0.507,1.716-1.157,5.001,1.176,5.689c2.053,0.606,3.276-1.647,4.057-4.288C160.777,21.349,161.438,18.195,159.091,17.501
	 M155.998,27.864c-2.729-0.806-4.517-3.822-3.611-6.888c0.793-2.684,3.676-4.831,6.771-3.917c2.875,0.849,4.63,3.872,3.708,6.996
	C161.938,27.194,158.741,28.674,155.998,27.864"/>
<path fill="#5B666B" d="M175.039,30.634c-0.662,1.548-0.785,1.844-1.402,3.444l-1.002-0.418c-0.119-0.829-0.219-1.467-0.455-2.809
	l-1.474-8.473l-3.495,8.541l1.52,0.65l-0.164,0.396c-0.616-0.274-1.252-0.539-1.873-0.798c-0.536-0.223-1.088-0.453-1.631-0.663
	l0.166-0.395l1.418,0.574c0.098-0.274,0.209-0.542,0.322-0.811c0.482-1.158,0.951-2.322,1.434-3.48
	c0.665-1.595,1.339-3.172,2.041-4.736c-0.177-0.173-0.241-0.217-0.617-0.389l-0.771-0.338l0.165-0.398
	c0.587,0.261,1.393,0.598,2.155,0.916c0.791,0.33,1.045,0.436,1.616,0.659c0.13,0.801,0.297,1.832,0.398,2.421l1.037,6.103
	l2.729-6.306l-1.576-0.673l0.165-0.398c0.587,0.262,1.181,0.508,1.773,0.755c0.594,0.248,1.201,0.5,1.801,0.736l-0.166,0.396
	l-1.434-0.581c-0.178,0.39-1.035,2.287-1.212,2.711L175.039,30.634z"/>
<path fill="#5B666B" d="M143.09,76.073c0.567,0,0.567-0.255,0.567-0.567v-3.829c0-0.312-0.255-0.446-0.567-0.446h-34.625
	c-0.312,0-0.567,0.135-0.567,0.447v3.944c0,0.312,0.104,0.536,0.574,0.536c5.744,0,6.972,0.812,6.972,4.173v14.05
	c0,8.806-1.881,9.943-15.016,9.943h-0.067c-13.135,0-15.015-1.137-15.015-9.943v-14.05c0-3.36,1.228-4.173,6.972-4.173
	c0.469,0,0.574-0.224,0.574-0.536v-3.944c0-0.312-0.255-0.447-0.566-0.447H57.698c-0.312,0-0.567,0.134-0.567,0.446v3.829
	c0,0.312,0,0.567,0.567,0.567c5.458,0,6.979,1.34,6.979,4.959v47.2c0,3.62-1.521,4.961-6.979,4.961
	c-0.567,0-0.567,0.254-0.567,0.565v3.829c0,0.312,0.255,0.445,0.567,0.445h34.626c0.311,0,0.566-0.135,0.566-0.447v-3.943
	c0-0.312-0.104-0.536-0.574-0.536c-5.744,0-6.972-0.812-6.972-4.172v-14.052c0-8.805,1.88-9.942,15.015-9.942h0.067
	c13.135,0,15.016,1.138,15.016,9.942v14.052c0,3.36-1.228,4.172-6.972,4.172c-0.47,0-0.574,0.224-0.574,0.536v3.943
	c0,0.312,0.255,0.447,0.567,0.447h34.625c0.312,0,0.567-0.134,0.567-0.445v-3.829c0-0.312,0-0.565-0.567-0.565
	c-5.457,0-6.979-1.341-6.979-4.961v-47.2C136.111,77.413,137.633,76.073,143.09,76.073"/>
<path fill="#5B666B" d="M37.622,188.818c0.011,0.068,0.031,0.154,0.059,0.264s0.068,0.226,0.121,0.352
	c0.053,0.127,0.12,0.254,0.201,0.386c0.081,0.131,0.181,0.253,0.298,0.365c0.128,0.128,0.252,0.226,0.373,0.292
	c0.12,0.067,0.234,0.116,0.344,0.146c0.108,0.031,0.211,0.048,0.31,0.051c0.098,0.003,0.188,0.004,0.272,0.004
	c0.296,0,0.539-0.046,0.729-0.139c0.19-0.092,0.339-0.205,0.447-0.338c0.11-0.135,0.186-0.275,0.231-0.424
	c0.045-0.147,0.067-0.277,0.067-0.39c0-0.206-0.049-0.377-0.147-0.511c-0.098-0.134-0.228-0.246-0.39-0.334
	c-0.162-0.09-0.346-0.165-0.553-0.227c-0.207-0.062-0.418-0.124-0.637-0.189c-0.217-0.064-0.43-0.139-0.636-0.225
	c-0.207-0.087-0.391-0.199-0.553-0.336s-0.292-0.306-0.389-0.506c-0.098-0.202-0.146-0.453-0.146-0.754
	c0-0.225,0.05-0.438,0.15-0.646c0.101-0.205,0.24-0.389,0.419-0.547c0.178-0.16,0.392-0.289,0.641-0.386
	c0.249-0.099,0.518-0.147,0.808-0.147c0.185,0,0.347,0.018,0.486,0.051c0.139,0.033,0.262,0.068,0.369,0.105
	c0.106,0.036,0.199,0.07,0.28,0.104c0.082,0.033,0.155,0.051,0.223,0.051c0.078,0,0.129-0.013,0.155-0.037
	c0.025-0.026,0.052-0.072,0.08-0.139h0.134v1.592h-0.109c-0.067-0.196-0.138-0.389-0.213-0.579c-0.075-0.19-0.172-0.36-0.288-0.515
	c-0.118-0.153-0.266-0.277-0.444-0.373c-0.179-0.094-0.405-0.143-0.679-0.143c-0.223,0-0.42,0.031-0.59,0.092
	c-0.171,0.062-0.314,0.143-0.432,0.244c-0.117,0.1-0.207,0.213-0.268,0.335c-0.061,0.123-0.092,0.249-0.092,0.377
	c0,0.195,0.051,0.356,0.155,0.485s0.239,0.238,0.406,0.33c0.168,0.093,0.359,0.172,0.574,0.24c0.215,0.066,0.435,0.137,0.662,0.209
	c0.226,0.072,0.447,0.151,0.662,0.238s0.406,0.197,0.574,0.33c0.167,0.135,0.303,0.297,0.406,0.486s0.155,0.425,0.155,0.703
	c0,0.274-0.056,0.533-0.167,0.779s-0.269,0.461-0.473,0.645c-0.204,0.185-0.447,0.332-0.729,0.44s-0.595,0.163-0.942,0.163
	c-0.174,0-0.345-0.016-0.515-0.049c-0.171-0.035-0.33-0.069-0.478-0.105c-0.148-0.036-0.28-0.071-0.394-0.105
	c-0.115-0.033-0.2-0.051-0.256-0.051c-0.078,0-0.134,0.014-0.167,0.039c-0.033,0.024-0.064,0.076-0.092,0.154h-0.134v-1.859H37.622z
	"/>
<path fill="#5B666B" d="M48.183,188.199h1.927l-0.988-2.287L48.183,188.199z M47.077,190.561l2.496-6.08H49.8l2.638,6.08h0.72v0.117
	h-2.813v-0.117h0.778l-0.971-2.244h-2.01l-0.93,2.244h0.746v0.117h-1.583v-0.117H47.077z"/>
<polygon fill="#5B666B" points="59.39,184.715 62.179,188.701 62.196,188.701 62.196,184.832 61.424,184.832 61.424,184.715
	63.101,184.715 63.101,184.832 62.33,184.832 62.33,190.678 62.103,190.678 58.334,185.309 58.317,185.309 58.317,190.561
	59.088,190.561 59.088,190.678 57.413,190.678 57.413,190.561 58.183,190.561 58.183,184.832 57.413,184.832 57.413,184.715 "/>
<path fill="#5B666B" d="M74.348,184.832v-0.117h4.95v1.432H79.19c-0.079-0.201-0.164-0.383-0.256-0.544
	c-0.092-0.163-0.2-0.301-0.322-0.415c-0.123-0.113-0.267-0.201-0.432-0.264c-0.165-0.061-0.358-0.092-0.582-0.092h-1.265v2.696
	h0.469c0.207,0,0.381-0.028,0.524-0.089c0.142-0.058,0.261-0.141,0.356-0.25c0.095-0.109,0.173-0.24,0.234-0.394
	c0.062-0.154,0.112-0.325,0.15-0.515h0.109v2.604h-0.109c-0.039-0.161-0.085-0.317-0.138-0.469c-0.053-0.15-0.125-0.283-0.213-0.397
	c-0.089-0.114-0.199-0.205-0.331-0.272c-0.131-0.066-0.294-0.1-0.49-0.1h-0.561v2.914h0.779v0.117h-2.765v-0.117h0.771v-5.729
	H74.348z"/>
<path fill="#5B666B" d="M86.585,187.42c0.251,0,0.45-0.033,0.595-0.102c0.145-0.066,0.253-0.157,0.326-0.271
	c0.073-0.113,0.119-0.244,0.138-0.39c0.02-0.146,0.029-0.293,0.029-0.444c0-0.245-0.017-0.456-0.05-0.633
	c-0.034-0.176-0.089-0.32-0.167-0.434c-0.079-0.115-0.186-0.199-0.323-0.256c-0.137-0.057-0.312-0.084-0.523-0.084
	c-0.062,0-0.123,0.003-0.185,0.009c-0.062,0.005-0.123,0.012-0.184,0.017v2.588H86.585z M84.256,184.832v-0.117h1.265
	c0.235,0,0.466-0.005,0.696-0.012c0.228-0.01,0.46-0.014,0.695-0.014c0.217,0,0.448,0.022,0.69,0.066
	c0.243,0.045,0.465,0.122,0.666,0.23c0.201,0.109,0.368,0.256,0.499,0.439c0.131,0.186,0.197,0.416,0.197,0.696
	c0,0.222-0.051,0.414-0.15,0.573c-0.101,0.158-0.23,0.288-0.39,0.39c-0.159,0.101-0.336,0.178-0.531,0.229
	c-0.196,0.055-0.389,0.088-0.578,0.105v0.042c0.274,0.05,0.518,0.101,0.733,0.151c0.215,0.049,0.401,0.125,0.557,0.225
	c0.157,0.102,0.281,0.24,0.373,0.419c0.092,0.179,0.149,0.419,0.172,0.721c0.028,0.353,0.05,0.634,0.066,0.847
	c0.017,0.211,0.041,0.376,0.071,0.493c0.031,0.118,0.073,0.196,0.126,0.235c0.052,0.039,0.129,0.059,0.23,0.059
	c0.112,0,0.204-0.033,0.276-0.097c0.072-0.064,0.137-0.124,0.193-0.181l0.083,0.076c-0.056,0.055-0.11,0.107-0.164,0.154
	c-0.053,0.049-0.114,0.088-0.184,0.121c-0.07,0.034-0.154,0.061-0.255,0.08s-0.227,0.029-0.377,0.029
	c-0.307,0-0.547-0.049-0.72-0.146c-0.174-0.098-0.302-0.219-0.386-0.364c-0.083-0.145-0.136-0.302-0.155-0.474
	c-0.019-0.17-0.032-0.33-0.038-0.48c-0.011-0.23-0.026-0.452-0.046-0.666c-0.02-0.215-0.065-0.407-0.138-0.574
	c-0.072-0.168-0.181-0.301-0.327-0.402c-0.145-0.101-0.349-0.15-0.611-0.15h-0.552v3.023h0.77v0.117h-2.756v-0.117h0.771v-5.729
	H84.256z"/>
<path fill="#5B666B" d="M95.798,188.199h1.927l-0.988-2.287L95.798,188.199z M94.692,190.561l2.496-6.08h0.226l2.638,6.08h0.72
	v0.117h-2.813v-0.117h0.779l-0.971-2.244h-2.01l-0.93,2.244h0.746v0.117h-1.583v-0.117H94.692z"/>
<polygon fill="#5B666B" points="107.005,184.715 109.794,188.701 109.811,188.701 109.811,184.832 109.039,184.832 109.039,184.715
	110.715,184.715 110.715,184.832 109.945,184.832 109.945,190.678 109.719,190.678 105.949,185.309 105.933,185.309
	105.933,190.561 106.703,190.561 106.703,190.678 105.027,190.678 105.027,190.561 105.798,190.561 105.798,184.832
	105.027,184.832 105.027,184.715 "/>
<path fill="#5B666B" d="M120.531,186.424c-0.062-0.186-0.136-0.379-0.222-0.582c-0.087-0.205-0.198-0.391-0.335-0.562
	c-0.138-0.171-0.308-0.311-0.512-0.42c-0.203-0.108-0.456-0.163-0.758-0.163c-0.406,0-0.729,0.075-0.963,0.227
	c-0.234,0.15-0.412,0.359-0.532,0.628s-0.196,0.589-0.229,0.96c-0.035,0.371-0.051,0.777-0.051,1.217
	c0,0.582,0.033,1.062,0.102,1.441c0.066,0.381,0.17,0.682,0.312,0.904c0.143,0.225,0.326,0.381,0.553,0.47
	c0.228,0.089,0.496,0.134,0.809,0.134c0.252,0,0.479-0.051,0.684-0.151c0.203-0.1,0.383-0.232,0.539-0.397
	c0.156-0.164,0.288-0.354,0.395-0.565c0.105-0.212,0.184-0.432,0.234-0.661h0.134v1.775h-0.134c-0.028-0.066-0.062-0.113-0.1-0.139
	c-0.041-0.024-0.099-0.037-0.177-0.037c-0.067,0-0.153,0.016-0.26,0.046s-0.228,0.065-0.365,0.101
	c-0.136,0.035-0.286,0.07-0.447,0.101c-0.162,0.031-0.333,0.046-0.511,0.046c-0.408,0-0.802-0.079-1.182-0.238
	c-0.379-0.16-0.713-0.377-1-0.654c-0.287-0.275-0.519-0.602-0.691-0.975c-0.174-0.375-0.26-0.779-0.26-1.215
	c0-0.475,0.097-0.905,0.289-1.289c0.192-0.387,0.439-0.715,0.741-0.989s0.638-0.485,1.009-0.632
	c0.371-0.148,0.736-0.223,1.094-0.223c0.178,0,0.345,0.018,0.498,0.051c0.154,0.033,0.295,0.068,0.427,0.105
	c0.132,0.036,0.251,0.07,0.356,0.104s0.195,0.051,0.268,0.051c0.078,0,0.137-0.01,0.176-0.03c0.039-0.019,0.066-0.067,0.084-0.146
	h0.134v1.709H120.531z"/>
<polygon fill="#5B666B" points="128.454,184.715 128.454,184.832 127.684,184.832 127.684,190.561 128.454,190.561 128.454,190.678
	125.699,190.678 125.699,190.561 126.469,190.561 126.469,184.832 125.699,184.832 125.699,184.715 "/>
<path fill="#5B666B" d="M133.622,188.818c0.011,0.068,0.03,0.154,0.06,0.264c0.027,0.109,0.067,0.226,0.121,0.352
	c0.053,0.127,0.119,0.254,0.201,0.386c0.08,0.131,0.18,0.253,0.297,0.365c0.129,0.128,0.252,0.226,0.372,0.292
	c0.12,0.067,0.235,0.116,0.344,0.146c0.108,0.031,0.212,0.048,0.31,0.051s0.188,0.004,0.272,0.004c0.296,0,0.538-0.046,0.729-0.139
	c0.189-0.092,0.339-0.205,0.447-0.338c0.109-0.135,0.186-0.275,0.23-0.424c0.045-0.147,0.066-0.277,0.066-0.39
	c0-0.206-0.049-0.377-0.146-0.511s-0.228-0.246-0.389-0.334c-0.162-0.09-0.347-0.165-0.553-0.227
	c-0.207-0.062-0.419-0.124-0.637-0.189c-0.219-0.064-0.43-0.139-0.637-0.225c-0.207-0.087-0.391-0.199-0.553-0.336
	s-0.292-0.306-0.389-0.506c-0.098-0.202-0.147-0.453-0.147-0.754c0-0.225,0.05-0.438,0.15-0.646
	c0.101-0.205,0.241-0.389,0.419-0.547c0.179-0.16,0.393-0.289,0.641-0.386c0.248-0.099,0.519-0.147,0.809-0.147
	c0.185,0,0.347,0.018,0.486,0.051c0.139,0.033,0.262,0.068,0.368,0.105c0.106,0.036,0.199,0.07,0.28,0.104
	c0.08,0.033,0.154,0.051,0.222,0.051c0.079,0,0.13-0.013,0.155-0.037c0.025-0.026,0.052-0.072,0.08-0.139h0.133v1.592h-0.107
	c-0.068-0.196-0.139-0.389-0.214-0.579s-0.172-0.36-0.289-0.515c-0.117-0.153-0.266-0.277-0.444-0.373
	c-0.18-0.094-0.404-0.143-0.679-0.143c-0.224,0-0.42,0.031-0.591,0.092c-0.17,0.062-0.312,0.143-0.432,0.244
	c-0.116,0.1-0.205,0.213-0.268,0.335c-0.061,0.123-0.092,0.249-0.092,0.377c0,0.195,0.053,0.356,0.154,0.485
	c0.104,0.129,0.24,0.238,0.407,0.33c0.167,0.093,0.358,0.172,0.573,0.24c0.215,0.066,0.437,0.137,0.662,0.209
	s0.447,0.151,0.662,0.238s0.406,0.197,0.573,0.33c0.167,0.135,0.303,0.297,0.407,0.486c0.102,0.189,0.154,0.425,0.154,0.703
	c0,0.274-0.057,0.533-0.168,0.779s-0.27,0.461-0.474,0.645c-0.203,0.185-0.446,0.332-0.728,0.44
	c-0.283,0.108-0.596,0.163-0.943,0.163c-0.172,0-0.344-0.016-0.515-0.049c-0.17-0.035-0.329-0.069-0.478-0.105
	c-0.147-0.036-0.278-0.071-0.395-0.105c-0.113-0.033-0.199-0.051-0.254-0.051c-0.079,0-0.135,0.014-0.168,0.039
	c-0.033,0.024-0.064,0.076-0.092,0.154h-0.135v-1.859H133.622z"/>
<path fill="#5B666B" d="M147.978,186.424c-0.062-0.186-0.136-0.379-0.222-0.582c-0.087-0.205-0.198-0.391-0.336-0.562
	c-0.137-0.171-0.307-0.311-0.51-0.42c-0.204-0.108-0.457-0.163-0.758-0.163c-0.408,0-0.73,0.075-0.964,0.227
	c-0.233,0.15-0.411,0.359-0.532,0.628c-0.119,0.269-0.197,0.589-0.23,0.96s-0.05,0.777-0.05,1.217c0,0.582,0.034,1.062,0.101,1.441
	c0.066,0.381,0.172,0.682,0.314,0.904c0.142,0.225,0.326,0.381,0.553,0.47s0.496,0.134,0.809,0.134c0.25,0,0.479-0.051,0.682-0.151
	c0.205-0.1,0.385-0.232,0.541-0.397c0.156-0.164,0.287-0.354,0.394-0.565s0.185-0.432,0.235-0.661h0.133v1.775h-0.133
	c-0.029-0.066-0.062-0.113-0.102-0.139c-0.039-0.024-0.098-0.037-0.176-0.037c-0.066,0-0.153,0.016-0.26,0.046
	c-0.105,0.03-0.227,0.065-0.364,0.101c-0.137,0.035-0.286,0.07-0.448,0.101c-0.162,0.031-0.332,0.046-0.512,0.046
	c-0.407,0-0.801-0.079-1.18-0.238c-0.381-0.16-0.714-0.377-1.002-0.654c-0.287-0.275-0.518-0.602-0.689-0.975
	c-0.174-0.375-0.26-0.779-0.26-1.215c0-0.475,0.096-0.905,0.287-1.289c0.193-0.387,0.44-0.715,0.742-0.989s0.638-0.485,1.009-0.632
	c0.372-0.148,0.736-0.223,1.093-0.223c0.18,0,0.346,0.018,0.5,0.051c0.152,0.033,0.295,0.068,0.426,0.105
	c0.133,0.036,0.25,0.07,0.356,0.104s0.194,0.051,0.269,0.051c0.078,0,0.137-0.01,0.176-0.03c0.039-0.019,0.066-0.067,0.084-0.146
	h0.133v1.709H147.978z"/>
<path fill="#5B666B" d="M154.637,189.158c0.066,0.382,0.172,0.686,0.313,0.913c0.143,0.226,0.327,0.384,0.553,0.473
	c0.227,0.089,0.495,0.134,0.809,0.134c0.413,0,0.737-0.076,0.972-0.23c0.234-0.153,0.41-0.365,0.527-0.637
	c0.117-0.271,0.191-0.591,0.223-0.963c0.029-0.371,0.045-0.775,0.045-1.21c0-0.392-0.012-0.764-0.037-1.119
	c-0.025-0.354-0.096-0.667-0.214-0.938c-0.118-0.27-0.294-0.484-0.532-0.644c-0.237-0.159-0.564-0.239-0.983-0.239
	c-0.392,0-0.704,0.075-0.938,0.223c-0.234,0.148-0.413,0.355-0.535,0.623c-0.123,0.269-0.205,0.588-0.243,0.956
	c-0.04,0.368-0.059,0.773-0.059,1.214C154.536,188.293,154.569,188.775,154.637,189.158 M153.459,186.424
	c0.193-0.387,0.44-0.715,0.742-0.989c0.301-0.274,0.639-0.485,1.014-0.632c0.373-0.148,0.738-0.223,1.097-0.223
	c0.386,0,0.767,0.072,1.144,0.218s0.712,0.353,1.005,0.62s0.53,0.593,0.712,0.977c0.182,0.381,0.271,0.812,0.271,1.293
	c0,0.42-0.084,0.816-0.255,1.193s-0.399,0.707-0.687,0.993c-0.288,0.284-0.62,0.51-0.996,0.674
	c-0.377,0.165-0.775,0.247-1.194,0.247c-0.413,0-0.81-0.079-1.189-0.238c-0.38-0.16-0.713-0.377-1.001-0.654
	c-0.287-0.275-0.518-0.602-0.691-0.975c-0.173-0.375-0.26-0.779-0.26-1.215C153.17,187.238,153.267,186.808,153.459,186.424"/>
</svg>
