<svg xmlns="http://www.w3.org/2000/svg" width="24" height="24" viewBox="0 0 24 24"><path d="M12 2.162c3.204 0 3.584.012 4.85.07 1.17.054 1.805.25 2.228.414.56.217.96.478 1.38.897s.68.82.897 1.38c.165.423.36 1.058.413 2.228.058 1.267.07 1.646.07 4.85s-.013 3.584-.07 4.85c-.053 1.17-.248 1.805-.413 2.228-.218.56-.478.96-.897 1.38s-.82.68-1.38.897c-.423.165-1.06.36-2.23.413-1.264.06-1.644.07-4.848.07s-3.584-.012-4.85-.07c-1.17-.053-1.805-.248-2.228-.413-.56-.218-.96-.478-1.38-.897s-.68-.82-.897-1.38c-.164-.423-.36-1.058-.413-2.228-.058-1.266-.07-1.646-.07-4.85s.013-3.583.07-4.85c.053-1.17.25-1.804.413-2.227.218-.56.478-.96.897-1.38s.82-.68 1.38-.897c.423-.165 1.06-.36 2.23-.414 1.264-.058 1.644-.07 4.848-.07M12 0C8.74 0 8.332.014 7.053.072 5.775.13 4.903.332 4.14.63a5.898 5.898 0 0 0-2.126 1.384A5.89 5.89 0 0 0 .63 4.14c-.297.763-.5 1.635-.558 2.912C.014 8.332 0 8.742 0 12s.014 3.668.072 4.947c.06 1.277.26 2.15.558 2.913.307.79.717 1.458 1.384 2.126A5.898 5.898 0 0 0 4.14 23.37c.764.296 1.636.5 2.913.558C8.333 23.986 8.74 24 12 24s3.668-.014 4.947-.072c1.277-.06 2.15-.262 2.913-.558a5.898 5.898 0 0 0 2.126-1.384 5.898 5.898 0 0 0 1.384-2.126c.297-.763.5-1.636.558-2.913.058-1.28.072-1.688.072-4.947s-.014-3.667-.072-4.948c-.06-1.277-.26-2.15-.558-2.913a5.886 5.886 0 0 0-1.384-2.126A5.885 5.885 0 0 0 19.86.63c-.763-.296-1.636-.5-2.913-.558C15.667.014 15.26 0 12 0z"/><path d="M12 5.838a6.162 6.162 0 1 0 0 12.324 6.162 6.162 0 0 0 0-12.324M12 16a4 4 0 1 1 0-8 4 4 0 0 1 0 8zM19.846 5.594a1.44 1.44 0 1 1-2.88 0 1.44 1.44 0 0 1 2.88 0"/></svg>