<?xml version="1.0" encoding="utf-8"?>
<!-- Generator: Adobe Illustrator 14.0.0, SVG Export Plug-In . SVG Version: 6.00 Build 43363)  -->
<!DOCTYPE svg PUBLIC "-//W3C//DTD SVG 1.1//EN" "http://www.w3.org/Graphics/SVG/1.1/DTD/svg11.dtd">
<svg version="1.1" id="Layer_1" xmlns="http://www.w3.org/2000/svg" xmlns:xlink="http://www.w3.org/1999/xlink" x="0px" y="0px"
	 width="864px" height="864px" viewBox="0 0 864 864" enable-background="new 0 0 864 864" xml:space="preserve">
<g>
	<path d="M860.079,254.436c-2.091-45.841-9.371-77.147-20.019-104.542c-11.007-28.32-25.731-52.338-49.673-76.28
		c-23.943-23.943-47.962-38.669-76.282-49.675C686.711,13.292,655.404,6.013,609.564,3.92C563.628,1.824,548.964,1.329,432,1.329
		S300.37,1.824,254.436,3.92c-45.841,2.093-77.147,9.372-104.542,20.019c-28.319,11.006-52.338,25.731-76.28,49.675
		c-23.943,23.942-38.669,47.96-49.675,76.28C13.292,177.288,6.013,208.595,3.92,254.436C1.824,300.37,1.329,315.036,1.329,432
		S1.824,563.628,3.92,609.564c2.093,45.84,9.372,77.146,20.019,104.541c11.006,28.319,25.731,52.339,49.675,76.282
		c23.942,23.941,47.961,38.666,76.28,49.673c27.395,10.647,58.701,17.927,104.542,20.019c45.935,2.096,60.601,2.592,177.564,2.592
		s131.628-0.496,177.564-2.592c45.84-2.092,77.146-9.371,104.541-20.019c28.32-11.007,52.339-25.731,76.282-49.673
		c23.941-23.943,38.666-47.962,49.673-76.282c10.647-27.395,17.928-58.701,20.019-104.541c2.096-45.937,2.592-60.601,2.592-177.564
		S862.175,300.37,860.079,254.436z M782.561,606.027c-1.915,41.99-8.932,64.793-14.828,79.969
		c-7.812,20.102-17.146,34.449-32.216,49.521c-15.071,15.07-29.419,24.403-49.521,32.216c-15.176,5.896-37.979,12.913-79.969,14.828
		c-45.406,2.072-59.024,2.511-174.027,2.511s-128.622-0.438-174.028-2.511c-41.988-1.915-64.794-8.932-79.97-14.828
		c-20.102-7.812-34.448-17.146-49.518-32.216c-15.071-15.071-24.405-29.419-32.218-49.521
		c-5.897-15.176-12.912-37.979-14.829-79.968c-2.071-45.413-2.51-59.034-2.51-174.028s0.438-128.615,2.51-174.028
		c1.917-41.988,8.932-64.794,14.829-79.97c7.812-20.102,17.146-34.448,32.216-49.518c15.071-15.071,29.418-24.405,49.52-32.218
		c15.176-5.897,37.981-12.912,79.97-14.829c45.413-2.071,59.034-2.51,174.028-2.51s128.615,0.438,174.027,2.51
		c41.99,1.917,64.793,8.932,79.969,14.829c20.102,7.812,34.449,17.146,49.521,32.216c15.07,15.071,24.403,29.418,32.216,49.52
		c5.896,15.176,12.913,37.981,14.828,79.97c2.071,45.413,2.511,59.034,2.511,174.028S784.632,560.615,782.561,606.027z"/>
	<path d="M432,210.844c-122.142,0-221.156,99.015-221.156,221.156c0,122.141,99.015,221.153,221.156,221.153
		c122.141,0,221.153-99.013,221.153-221.153C653.153,309.858,554.141,210.844,432,210.844z M432,575.557
		c-79.285,0-143.558-64.273-143.558-143.557c0-79.285,64.272-143.558,143.558-143.558c79.283,0,143.557,64.272,143.557,143.558
		C575.557,511.283,511.283,575.557,432,575.557z"/>
	<circle cx="661.893" cy="202.107" r="51.68"/>
</g>
</svg>
