<?xml version="1.0" encoding="utf-8"?>
<!-- Generator: Adobe Illustrator 14.0.0, SVG Export Plug-In . SVG Version: 6.00 Build 43363)  -->
<!DOCTYPE svg PUBLIC "-//W3C//DTD SVG 1.1//EN" "http://www.w3.org/Graphics/SVG/1.1/DTD/svg11.dtd">
<svg version="1.1" id="Layer_1" xmlns="http://www.w3.org/2000/svg" xmlns:xlink="http://www.w3.org/1999/xlink" x="0px" y="0px"
	 width="24px" height="24px" viewBox="0 0 24 24" enable-background="new 0 0 24 24" xml:space="preserve">
<g>
	<g>
		<path d="M12,2.162c3.204,0,3.584,0.012,4.849,0.07c1.17,0.054,1.806,0.249,2.229,0.414c0.561,0.217,0.96,0.478,1.38,0.897
			s0.68,0.82,0.897,1.38c0.165,0.423,0.36,1.058,0.413,2.228c0.058,1.266,0.07,1.645,0.07,4.849s-0.013,3.584-0.07,4.85
			c-0.053,1.17-0.248,1.805-0.413,2.228c-0.218,0.56-0.478,0.96-0.897,1.38s-0.819,0.68-1.38,0.897
			c-0.423,0.165-1.059,0.36-2.229,0.413c-1.265,0.059-1.645,0.07-4.849,0.07s-3.584-0.012-4.849-0.07
			c-1.17-0.053-1.806-0.248-2.229-0.413c-0.561-0.218-0.96-0.478-1.38-0.897s-0.68-0.82-0.897-1.38
			c-0.164-0.423-0.36-1.058-0.413-2.228c-0.058-1.266-0.07-1.646-0.07-4.85s0.013-3.583,0.07-4.849
			c0.053-1.17,0.249-1.805,0.413-2.228c0.218-0.56,0.478-0.96,0.897-1.38s0.819-0.68,1.38-0.897c0.423-0.165,1.059-0.36,2.229-0.414
			C8.416,2.174,8.796,2.162,12,2.162 M12,0C8.741,0,8.332,0.014,7.053,0.072C5.775,0.13,4.903,0.333,4.14,0.63
			C3.351,0.937,2.682,1.347,2.014,2.014C1.347,2.681,0.937,3.351,0.63,4.14C0.333,4.903,0.131,5.775,0.072,7.052
			C0.014,8.333,0,8.741,0,12s0.014,3.668,0.072,4.947c0.059,1.277,0.261,2.15,0.558,2.913c0.307,0.789,0.717,1.458,1.384,2.126
			c0.668,0.667,1.337,1.077,2.126,1.384c0.764,0.296,1.636,0.499,2.913,0.558C8.332,23.986,8.741,24,12,24s3.668-0.014,4.947-0.072
			c1.277-0.059,2.15-0.262,2.913-0.558c0.789-0.307,1.458-0.717,2.126-1.384c0.667-0.668,1.077-1.337,1.384-2.126
			c0.297-0.763,0.499-1.636,0.558-2.913C23.986,15.668,24,15.259,24,12s-0.014-3.667-0.072-4.948
			c-0.059-1.277-0.261-2.149-0.558-2.913c-0.307-0.789-0.717-1.458-1.384-2.125c-0.668-0.667-1.337-1.078-2.126-1.384
			c-0.763-0.296-1.636-0.5-2.913-0.558C15.668,0.014,15.259,0,12,0z"/>
	</g>
	<g>
		<path d="M12,5.838c-3.403,0-6.162,2.759-6.162,6.162S8.597,18.162,12,18.162s6.162-2.759,6.162-6.162S15.403,5.838,12,5.838
			 M12,16c-2.209,0-4-1.791-4-4s1.791-4,4-4s4,1.791,4,4S14.209,16,12,16z"/>
		<path d="M19.846,5.594c0,0.795-0.645,1.44-1.44,1.44c-0.795,0-1.439-0.645-1.439-1.44s0.645-1.44,1.439-1.44
			C19.201,4.154,19.846,4.799,19.846,5.594"/>
	</g>
</g>
</svg>
