<?xml version="1.0" encoding="utf-8"?>
<!-- Generator: Adobe Illustrator 14.0.0, SVG Export Plug-In . SVG Version: 6.00 Build 43363)  -->
<!DOCTYPE svg PUBLIC "-//W3C//DTD SVG 1.1//EN" "http://www.w3.org/Graphics/SVG/1.1/DTD/svg11.dtd">
<svg version="1.1" id="Layer_1" xmlns="http://www.w3.org/2000/svg" xmlns:xlink="http://www.w3.org/1999/xlink" x="0px" y="0px"
	 width="100px" height="100px" viewBox="0 0 100 100" enable-background="new 0 0 100 100" xml:space="preserve">
<path fill-rule="evenodd" clip-rule="evenodd" d="M13.308,0.636h73.384c6.97,0,12.672,5.702,12.672,12.672v73.385
	c0,6.97-5.702,12.672-12.672,12.672H13.308c-6.97,0-12.672-5.702-12.672-12.672V13.308C0.636,6.338,6.338,0.636,13.308,0.636
	L13.308,0.636z M72.556,11.605c-2.445,0-4.444,2-4.444,4.445v10.639c0,2.445,1.999,4.445,4.444,4.445h11.159
	c2.444,0,4.444-2,4.444-4.445V16.05c0-2.445-2-4.445-4.444-4.445H72.556L72.556,11.605z M88.206,42.387h-8.69
	c0.822,2.686,1.267,5.527,1.267,8.472c0,16.422-13.74,29.733-30.688,29.733c-16.947,0-30.687-13.312-30.687-29.733
	c0-2.944,0.444-5.786,1.266-8.472h-9.067v41.705c0,2.158,1.766,3.925,3.925,3.925h68.751c2.158,0,3.925-1.767,3.925-3.925V42.387
	L88.206,42.387z M50.094,30.573c-10.95,0-19.828,8.603-19.828,19.212c0,10.611,8.878,19.213,19.828,19.213
	c10.951,0,19.829-8.602,19.829-19.213C69.923,39.176,61.045,30.573,50.094,30.573z"/>
</svg>
