<svg xmlns="http://www.w3.org/2000/svg" xmlns:xlink="http://www.w3.org/1999/xlink" version="1.1" x="0px" y="0px" width="100px" height="100px" viewBox="0 0 100 100" xml:space="preserve" class="style0"><path d="M95 59.727V93H75.71V61.955c0-7.799-2.79-13.121-9.773-13.121c-5.33 0-8.502 3.587-9.897 7.1 c-0.509 1.241-0.64 2.967-0.64 4.704V93H36.104c0 0 0.26-52.58 0-58.028h19.295v8.225c-0.039 0.062-0.09 0.128-0.127 0.188h0.127 v-0.188c2.563-3.948 7.141-9.588 17.388-9.588C85.483 33.6 95 41.9 95 59.727z M15.919 7C9.318 7 5 11.3 5 17 c0 5.6 4.2 10 10.7 10.031h0.129c6.729 0 10.914-4.46 10.914-10.031C26.579 11.3 22.5 7 15.9 7z M6.146 93h19.289 V34.972H6.146V93z"/></svg>