<svg xmlns="http://www.w3.org/2000/svg" viewBox="0 0 28 28"><path d="M25.424 15.887v8.447h-4.896v-7.882c0-1.979-.709-3.331-2.48-3.331-1.354 0-2.158.911-2.514 1.803-.129.315-.162.753-.162 1.194v8.216h-4.899s.066-13.349 0-14.731h4.899v2.088l-.033.048h.033v-.049c.65-1.002 1.812-2.435 4.414-2.435 3.222-.001 5.638 2.106 5.638 6.632zM5.348 2.501c-1.676 0-2.772 1.092-2.772 2.539 0 1.421 1.066 2.538 2.717 2.546h.032c1.709 0 2.771-1.132 2.771-2.546-.042-1.447-1.077-2.539-2.753-2.539h.005zM2.867 24.334h4.897V9.603H2.867v14.731z"/></svg>