<svg xmlns="http://www.w3.org/2000/svg" xmlns:xlink="http://www.w3.org/1999/xlink" version="1.1" x="0px" y="0px" width="512px" height="512px" viewBox="0 0 512 512" enable-background="new 0 0 512 512" xml:space="preserve"><path d="M256 0C114.615 0 0 114.6 0 256s114.613 256 256 256c141.385 0 256-114.615 256-256S397.385 0 256 0z M280.822 342.1 c-23.26-1.807-33.021-13.328-51.252-24.404c-10.03 52.589-22.282 103.009-58.57 129.3 c-11.202-79.484 16.447-139.182 29.285-202.557c-21.892-36.853 2.635-111.017 48.81-92.737 c56.813 22.474-49.2 137 22 151.308c74.311 14.9 104.645-128.929 58.571-175.712 c-66.579-67.553-193.799-1.54-178.155 95.178c3.807 23.6 28.2 30.8 9.8 63.451c-42.61-9.446-55.325-43.051-53.688-87.856 c2.634-73.337 65.892-124.682 129.343-131.783c80.242-8.982 155.6 29.5 166 104.9 C414.553 256.4 366.6 348.7 280.8 342.059z"/></svg>