<svg xmlns="http://www.w3.org/2000/svg" viewBox="0 0 28 28"><path d="M14.021 1.57C6.96 1.57 1.236 7.293 1.236 14.355S6.96 27.14 14.021 27.14s12.785-5.725 12.785-12.785C26.807 7.294 21.082 1.57 14.021 1.57zm1.24 17.085c-1.161-.09-1.649-.666-2.559-1.219-.501 2.626-1.113 5.145-2.925 6.458-.559-3.971.822-6.951 1.462-10.116-1.093-1.84.132-5.545 2.438-4.632 2.837 1.123-2.458 6.842 1.099 7.557 3.711.744 5.227-6.439 2.925-8.775-3.325-3.374-9.678-.077-8.897 4.754.19 1.178 1.408 1.538.489 3.168-2.128-.472-2.763-2.15-2.682-4.388.131-3.662 3.291-6.227 6.46-6.582 4.007-.448 7.771 1.474 8.29 5.239.579 4.255-1.816 8.865-6.102 8.533l.002.003z"/></svg>