<svg xmlns="http://www.w3.org/2000/svg" viewBox="0 0 32 32"><path d="M28.782.002c2.03.002 3.193 1.119 3.182 3.106-.022 3.569.17 7.159-.158 10.701-1.091 11.772-14.588 18.09-24.599 11.572C2.718 22.457.197 18.312.055 12.936-.035 9.577.006 6.216.03 2.856.04 1.113 1.212.015 3.02.008 7.347-.006 11.678.004 16.006.002c4.258 0 8.518-.004 12.776 0zM8.649 7.856c-1.261.135-1.988.57-2.356 1.476-.392.965-.115 1.81.606 2.496a746.818 746.818 0 0 0 7.399 6.966c1.086 1.003 2.237.99 3.314-.013a700.448 700.448 0 0 0 7.17-6.748c1.203-1.148 1.32-2.468.365-3.426-1.01-1.014-2.302-.933-3.558.245-1.595 1.497-3.22 2.965-4.75 4.526-.705.715-1.119.627-1.782-.034a123.71 123.71 0 0 0-4.93-4.644c-.471-.42-1.123-.647-1.478-.844z"/></svg>