<svg xmlns="http://www.w3.org/2000/svg" viewBox="0 0 28 28"><path d="M11.794 15.316c0-1.029-.835-1.895-1.866-1.895-1.03 0-1.893.865-1.893 1.895s.863 1.9 1.9 1.9c1.023-.016 1.865-.916 1.865-1.9zm6.306-1.894a1.917 1.917 0 0 0-1.895 1.895c0 1 .9 1.9 1.9 1.865a1.868 1.868 0 0 0 1.869-1.865C19.969 14.3 19.1 13.4 18.1 13.422zm-.573 6.369c-.678.678-1.826 1.006-3.514 1.006h-.029c-1.686 0-2.834-.328-3.51-1.005a.677.677 0 0 0-.958 0c-.264.265-.264.7 0 1 .943.9 2.4 1.4 4.5 1.402.005 0 0 0 0 0 .005 0 0 0 0 0 2.066 0 3.527-.459 4.47-1.402a.678.678 0 0 0 .002-.958c-.267-.334-.688-.334-.988-.043z"/><path d="M27.707 13.267a3.241 3.241 0 0 0-3.236-3.237c-.793 0-1.518.287-2.082.761-2.039-1.295-4.646-2.069-7.438-2.219l1.483-4.691 4.062.956c.071 1.4 1.3 2.6 2.7 2.555a2.696 2.696 0 0 0 2.695-2.695C25.881 3.2 24.7 2 23.2 2a2.703 2.703 0 0 0-2.42 1.508l-4.633-1.091a.683.683 0 0 0-.803.455l-1.793 5.7C10.548 8.6 7.7 9.4 5.6 10.75c-.594-.45-1.3-.75-2.1-.721-1.785 0-3.237 1.452-3.237 3.2 0 1.1.6 2.1 1.4 2.69-.04.272-.061.551-.061.831 0 2.3 1.3 4.4 3.7 5.9 2.299 1.5 5.3 2.3 8.6 2.325 3.228 0 6.271-.825 8.571-2.325 2.387-1.56 3.7-3.66 3.7-5.917 0-.26-.016-.514-.051-.768.966-.465 1.578-1.565 1.578-2.698zm-4.521-9.912c.74 0 1.3.6 1.3 1.3a1.341 1.341 0 0 1-2.682 0c.04-.655.596-1.255 1.396-1.3zM1.648 13.3c0-1.038.844-1.882 1.882-1.882.31 0 .6.1.9.209-1.049.868-1.813 1.861-2.26 2.9-.338-.327-.57-.727-.57-1.26zm20.125 8.27c-2.082 1.357-4.863 2.105-7.831 2.105-2.967 0-5.747-.748-7.828-2.105-1.991-1.301-3.088-3-3.088-4.782 0-1.784 1.097-3.484 3.088-4.784 2.081-1.358 4.861-2.106 7.828-2.106 2.967 0 5.7.7 7.8 2.106 1.99 1.3 3.1 3 3.1 4.784C24.859 18.6 23.8 20.3 21.8 21.57zm4.014-6.97c-.432-1.084-1.191-2.095-2.244-2.977.273-.156.59-.245.928-.245 1.035 0 1.9.8 1.9 1.9a2.073 2.073 0 0 1-.571 1.327z"/></svg>