<svg xmlns="http://www.w3.org/2000/svg" viewBox="0 0 240 240"><defs><linearGradient id="a" x1=".667" y1=".167" x2=".417" y2=".75"><stop stop-color="#37aee2" offset="0"/></linearGradient><linearGradient id="b" x1=".66" y1=".437" x2=".851" y2=".802"><stop stop-color="#eff7fc" offset="0"/><stop stop-color="#fff" offset="1"/></linearGradient></defs><circle cx="120" cy="120" r="120" fill="url(#a)"/><path fill="#c8daea" d="M98 175c-3.888 0-3.227-1.468-4.568-5.17L82 132.207 170 80"/><path fill="#a9c9dd" d="M98 175c3 0 4.325-1.372 6-3l16-15.558-19.958-12.035"/><path fill="url(#b)" d="M100.04 144.41l48.36 35.73c5.52 3.044 9.5 1.467 10.876-5.124l19.685-92.763c2.016-8.08-3.08-11.746-8.358-9.35l-115.59 44.572c-7.89 3.165-7.844 7.567-1.44 9.528l29.664 9.26 68.673-43.326c3.24-1.966 6.217-.91 3.775 1.258"/></svg>