<?xml version="1.0" encoding="utf-8"?>
<!-- Generator: Adobe Illustrator 14.0.0, SVG Export Plug-In . SVG Version: 6.00 Build 43363)  -->
<!DOCTYPE svg PUBLIC "-//W3C//DTD SVG 1.1//EN" "http://www.w3.org/Graphics/SVG/1.1/DTD/svg11.dtd">
<svg version="1.1" id="Layer_1" xmlns="http://www.w3.org/2000/svg" xmlns:xlink="http://www.w3.org/1999/xlink" x="0px" y="0px"
	 width="100px" height="100px" viewBox="0 0 100 100" enable-background="new 0 0 100 100" xml:space="preserve">
<path d="M88.499,28.586c1.629,31.016-22.195,57.478-53.211,59.105c-11.635,0.61-23.172-2.407-33.017-8.638
	c10.072,0.662,20.034-2.419,27.973-8.651c-7.72-0.92-14.226-6.19-16.726-13.555c2.986,0.479,6.041,0.283,8.94-0.577
	c-9.245-1.737-16.063-9.633-16.438-19.033c2.564,1.028,5.312,1.518,8.075,1.441C6.143,32.528,3.93,21.461,8.904,12.724
	c10.008,12.36,24.782,19.904,40.663,20.764c-3.139-10.2,2.584-21.012,12.786-24.15c7.522-2.315,15.699,0.165,20.669,6.27
	c4.418-0.792,8.634-2.46,12.399-4.902c-1.434,4.68-4.644,8.613-8.939,10.958c3.905-0.395,7.711-1.469,11.248-3.172
	C96.034,22.898,92.738,26.503,88.499,28.586z"/>
</svg>
