<svg xmlns="http://www.w3.org/2000/svg" viewBox="70 70 378.7 378.7"><path d="M254.998 363.106h21.217s6.408-.706 9.684-4.231c3.011-3.24 2.915-9.32 2.915-9.32s-.415-28.47 12.796-32.662c13.029-4.133 29.755 27.515 47.482 39.685 13.407 9.206 23.594 7.19 23.594 7.19l47.407-.662s24.797-1.53 13.038-21.027c-.962-1.593-6.85-14.423-35.248-40.783-29.728-27.59-25.743-23.126 10.063-70.85 21.807-29.063 30.523-46.806 27.799-54.405-2.595-7.24-18.635-5.327-18.635-5.327l-53.375.33s-3.96-.539-6.892 1.216c-2.87 1.716-4.71 5.726-4.71 5.726s-8.452 22.489-19.714 41.618c-23.768 40.357-33.273 42.494-37.158 39.984-9.038-5.842-6.78-23.462-6.78-35.983 0-39.112 5.933-55.42-11.552-59.641-5.801-1.4-10.075-2.326-24.914-2.478-19.046-.193-35.162.059-44.29 4.53-6.072 2.974-10.757 9.599-7.902 9.98 3.528.47 11.516 2.157 15.75 7.919 5.472 7.444 5.28 24.154 5.28 24.154s3.145 46.041-7.34 51.759c-7.193 3.922-17.063-4.085-38.253-40.7-10.855-18.755-19.054-39.49-19.054-39.49s-1.578-3.873-4.398-5.947c-3.42-2.512-8.2-3.308-8.2-3.308l-50.722.33s-7.612.213-10.41 3.525c-2.488 2.947-.198 9.036-.198 9.036s39.707 92.902 84.672 139.72c41.234 42.93 88.048 40.112 88.048 40.112"/></svg>