<svg
   xmlns:dc="http://purl.org/dc/elements/1.1/"
   xmlns:cc="http://creativecommons.org/ns#"
   xmlns:rdf="http://www.w3.org/1999/02/22-rdf-syntax-ns#"
   xmlns:svg="http://www.w3.org/2000/svg"
   xmlns="http://www.w3.org/2000/svg"
   version="1.1"
   width="28px"
   height="28px"
   viewBox="70 70 378.7 378.7"
   id="svg2"
   xml:space="preserve"><metadata
     id="metadata8"><rdf:RDF><cc:Work
         rdf:about=""><dc:format>image/svg+xml</dc:format><dc:type
           rdf:resource="http://purl.org/dc/dcmitype/StillImage" /><dc:title></dc:title></cc:Work></rdf:RDF></metadata><defs
     id="defs6" /><g
     transform="matrix(1.25,0,0,-1.25,0,518.7)"
     id="g10"><path
       d="m 203.998,124.475 16.974,0 c 0,0 5.126,0.565 7.747,3.385 2.409,2.592 2.332,7.456 2.332,7.456 0,0 -0.332,22.776 10.237,26.13 10.423,3.306 23.804,-22.012 37.986,-31.748 10.725,-7.365 18.875,-5.753 18.875,-5.753 l 37.925,0.53 c 0,0 19.838,1.224 10.431,16.822 -0.77,1.274 -5.48,11.538 -28.199,32.626 -23.782,22.072 -20.594,18.501 8.051,56.68 17.445,23.251 24.418,37.445 22.239,43.524 -2.076,5.792 -14.908,4.262 -14.908,4.262 l -42.7,-0.264 c 0,0 -3.168,0.431 -5.514,-0.973 -2.295,-1.373 -3.768,-4.581 -3.768,-4.581 0,0 -6.761,-17.991 -15.771,-33.294 -19.014,-32.286 -26.618,-33.995 -29.726,-31.987 -7.231,4.673 -5.424,18.769 -5.424,28.786 0,31.29 4.746,44.336 -9.242,47.713 -4.641,1.12 -8.06,1.861 -19.931,1.982 -15.237,0.155 -28.13,-0.047 -35.432,-3.624 -4.858,-2.379 -8.606,-7.679 -6.322,-7.984 2.823,-0.376 9.213,-1.725 12.601,-6.335 4.377,-5.955 4.224,-19.323 4.224,-19.323 0,0 2.515,-36.833 -5.872,-41.407 -5.755,-3.138 -13.651,3.268 -30.603,32.56 -8.684,15.004 -15.243,31.591 -15.243,31.591 0,0 -1.263,3.099 -3.519,4.758 -2.736,2.01 -6.559,2.647 -6.559,2.647 l -40.578,-0.265 c 0,0 -6.0902,-0.17 -8.3277,-2.819 -1.9911,-2.358 -0.159,-7.229 -0.159,-7.229 0,0 31.766,-74.322 67.7377,-111.776 32.987,-34.344 70.438,-32.09 70.438,-32.09 l 0,0"
       id="path16" /></g></svg>
