<svg xmlns="http://www.w3.org/2000/svg" xmlns:xlink="http://www.w3.org/1999/xlink" viewBox="0 0 29 29">
    <g>
	<path d="M304.8,35C161.9,35,46,150.9,46,293.8c0,70.9,37.6,134.3,37.6,134.3L38.4,565.9l141.8-45.3c0,0,52.6,32,124.7,32
		c142.9,0,258.8-115.9,258.8-258.8C563.6,150.9,447.7,35,304.8,35z M304.8,511.2c-66.5,0-119.8-36-119.8-36l-81.7,26.7l26.5-79.1
		c0,0-42.4-58.6-42.4-129c0-120.1,97.3-217.4,217.4-217.4c120.1,0,217.4,97.3,217.4,217.4C522.2,413.8,424.9,511.2,304.8,511.2z"/>
	<path d="M206.3,181.1c0,0,7-4.4,10.6-4.4c3.6,0,20.4,0,20.4,0s5.5,1,8,6.6c2.5,5.7,19.7,46.1,21,49.2s4.6,10.8-0.7,17.7
		c-5.4,6.9-16.5,19.8-16.5,19.8s-4.4,4-0.6,10.3c3.8,6.4,17.3,27.3,35,43.1c17.7,15.8,39.3,27.5,50.1,31c10.8,3.5,13.1-1.2,17.3-6.5
		c4.1-5.3,17-21.6,17-21.6s4.4-6.5,13.1-2.5c8.7,4,51.1,24.5,51.1,24.5s5.2,0.9,5.5,6.6c0.3,5.8,3.8,23-11.5,39.6
		c-15.4,16.6-48,24.3-63.5,19.9c-15.5-4.3-66.6-17.7-100-48.8S202,302,191,277.8c-11.1-24.2-10.4-38.5-9.8-45.2
		C181.8,225.8,185.3,194.5,206.3,181.1z"/>
    </g>
</svg>